<svg width="2376" height="4682" viewBox="0 0 2376 4682" fill="none" xmlns="http://www.w3.org/2000/svg">
<path d="M456 1033.49C1051.2 1103.53 1367.53 1064.84 1904.25 869.75V4224.5H456V1033.49Z" fill="url(#paint0_linear_252_2)"/>
<circle cx="371.25" cy="371.25" r="371.25" transform="matrix(-1 0 0 1 1995 3781)" fill="url(#paint1_radial_252_2)" fill-opacity="0.5"/>
<circle cx="578.625" cy="578.625" r="578.625" transform="matrix(-1 0 0 1 1157.25 3166)" fill="url(#paint2_radial_252_2)" fill-opacity="0.3"/>
<circle cx="1871.62" cy="3739.38" r="334.125" fill="url(#paint3_radial_252_2)"/>
<circle cx="486.375" cy="3240.62" r="334.125" fill="url(#paint4_radial_252_2)"/>
<g clip-path="url(#clip0_252_2)">
<rect x="1814.25" y="3574.75" width="249" height="624.75" rx="124.5" transform="rotate(180 1814.25 3574.75)" fill="url(#paint5_linear_252_2)" fill-opacity="0.8"/>
</g>
<circle cx="657.375" cy="4251.62" r="334.125" fill="url(#paint6_radial_252_2)"/>
<g clip-path="url(#clip1_252_2)">
<rect x="583.5" y="3001.57" width="216.191" height="542.43" rx="108.095" fill="url(#paint7_linear_252_2)" fill-opacity="0.8"/>
</g>
<circle cx="371.25" cy="371.25" r="371.25" transform="matrix(-1 0 0 1 2040 337.75)" fill="url(#paint8_radial_252_2)" fill-opacity="0.5"/>
<circle cx="363" cy="363" r="363" transform="matrix(-1 0 0 1 949.5 223)" fill="url(#paint9_radial_252_2)" fill-opacity="0.5"/>
<circle cx="363" cy="363" r="363" transform="matrix(-1 0 0 1 2260.5 0.25)" fill="url(#paint10_radial_252_2)" fill-opacity="0.3"/>
<circle cx="578.625" cy="578.625" r="578.625" transform="matrix(-1 0 0 1 2375.25 1148.5)" fill="url(#paint11_radial_252_2)" fill-opacity="0.1"/>
<circle cx="371.25" cy="371.25" r="371.25" transform="matrix(-1 0 0 1 891 2386.75)" fill="url(#paint12_radial_252_2)" fill-opacity="0.15"/>
<circle cx="516" cy="516" r="516" transform="matrix(-1 0 0 1 1449 1671.25)" fill="url(#paint13_radial_252_2)" fill-opacity="0.3"/>
<circle cx="334.125" cy="334.125" r="334.125" transform="matrix(1 0 0 -1 1194 1887.25)" fill="url(#paint14_radial_252_2)" fill-opacity="0.3"/>
<circle cx="334.125" cy="334.125" r="334.125" transform="matrix(-1 0 0 1 1886.25 2146)" fill="url(#paint15_radial_252_2)" fill-opacity="0.4"/>
<defs>
<linearGradient id="paint0_linear_252_2" x1="1180.5" y1="3211.53" x2="1180.5" y2="1171.7" gradientUnits="userSpaceOnUse">
<stop stop-color="#252525"/>
<stop offset="1" stop-color="#8B8B8B" stop-opacity="0"/>
</linearGradient>
<radialGradient id="paint1_radial_252_2" cx="0" cy="0" r="1" gradientUnits="userSpaceOnUse" gradientTransform="translate(371.25 371.25) rotate(90) scale(371.25)">
<stop stop-color="#FAE691" stop-opacity="0.7"/>
<stop offset="1" stop-color="#FAE691" stop-opacity="0"/>
</radialGradient>
<radialGradient id="paint2_radial_252_2" cx="0" cy="0" r="1" gradientUnits="userSpaceOnUse" gradientTransform="translate(578.625 578.625) rotate(90) scale(578.625)">
<stop stop-color="#F87719"/>
<stop offset="1" stop-color="#FAE691" stop-opacity="0"/>
</radialGradient>
<radialGradient id="paint3_radial_252_2" cx="0" cy="0" r="1" gradientUnits="userSpaceOnUse" gradientTransform="translate(1871.62 3739.38) rotate(90) scale(334.125)">
<stop stop-color="#FAE691" stop-opacity="0.28"/>
<stop offset="1" stop-color="#D9D9D9" stop-opacity="0"/>
</radialGradient>
<radialGradient id="paint4_radial_252_2" cx="0" cy="0" r="1" gradientUnits="userSpaceOnUse" gradientTransform="translate(486.375 3240.62) rotate(90) scale(334.125)">
<stop stop-color="#FAE691" stop-opacity="0.28"/>
<stop offset="1" stop-color="#D9D9D9" stop-opacity="0"/>
</radialGradient>
<linearGradient id="paint5_linear_252_2" x1="1938.75" y1="4114.75" x2="1938.75" y2="3833.88" gradientUnits="userSpaceOnUse">
<stop stop-color="#FAE691" stop-opacity="0"/>
<stop offset="1" stop-color="#948856"/>
</linearGradient>
<radialGradient id="paint6_radial_252_2" cx="0" cy="0" r="1" gradientUnits="userSpaceOnUse" gradientTransform="translate(657.375 4251.62) rotate(90) scale(334.125)">
<stop stop-color="#E3A77C" stop-opacity="0.22"/>
<stop offset="1" stop-color="#D9D9D9" stop-opacity="0"/>
</radialGradient>
<linearGradient id="paint7_linear_252_2" x1="691.5" y1="3272.5" x2="691.5" y2="2852.87" gradientUnits="userSpaceOnUse">
<stop stop-color="#FAE691" stop-opacity="0.5"/>
<stop offset="0.559891" stop-color="#948856" stop-opacity="0"/>
</linearGradient>
<radialGradient id="paint8_radial_252_2" cx="0" cy="0" r="1" gradientUnits="userSpaceOnUse" gradientTransform="translate(371.25 371.25) rotate(90) scale(371.25)">
<stop stop-color="#FAE691"/>
<stop offset="1" stop-color="#FAE691" stop-opacity="0"/>
</radialGradient>
<radialGradient id="paint9_radial_252_2" cx="0" cy="0" r="1" gradientUnits="userSpaceOnUse" gradientTransform="translate(363 363) rotate(90) scale(363)">
<stop stop-color="#E3A77C"/>
<stop offset="1" stop-color="#FAE691" stop-opacity="0"/>
</radialGradient>
<radialGradient id="paint10_radial_252_2" cx="0" cy="0" r="1" gradientUnits="userSpaceOnUse" gradientTransform="translate(363 363) rotate(90) scale(363)">
<stop stop-color="#F87719"/>
<stop offset="1" stop-color="#FAE691" stop-opacity="0"/>
</radialGradient>
<radialGradient id="paint11_radial_252_2" cx="0" cy="0" r="1" gradientUnits="userSpaceOnUse" gradientTransform="translate(578.625 578.625) rotate(90) scale(578.625)">
<stop stop-color="#F87719"/>
<stop offset="1" stop-color="#FAE691" stop-opacity="0"/>
</radialGradient>
<radialGradient id="paint12_radial_252_2" cx="0" cy="0" r="1" gradientUnits="userSpaceOnUse" gradientTransform="translate(371.25 371.25) rotate(90) scale(371.25)">
<stop stop-color="#FAE691"/>
<stop offset="1" stop-color="#FAE691" stop-opacity="0"/>
</radialGradient>
<radialGradient id="paint13_radial_252_2" cx="0" cy="0" r="1" gradientUnits="userSpaceOnUse" gradientTransform="translate(516 516) rotate(90) scale(516)">
<stop stop-color="#FAE691"/>
<stop offset="1" stop-color="#FAE691" stop-opacity="0"/>
</radialGradient>
<radialGradient id="paint14_radial_252_2" cx="0" cy="0" r="1" gradientUnits="userSpaceOnUse" gradientTransform="translate(334.5 309.375) rotate(90) scale(306.375)">
<stop stop-color="#E98E4B" stop-opacity="0.46"/>
<stop offset="1" stop-color="#D9D9D9" stop-opacity="0"/>
</radialGradient>
<radialGradient id="paint15_radial_252_2" cx="0" cy="0" r="1" gradientUnits="userSpaceOnUse" gradientTransform="translate(334.5 309.375) rotate(90) scale(306.375)">
<stop stop-color="#E98E4B" stop-opacity="0.46"/>
<stop offset="1" stop-color="#D9D9D9" stop-opacity="0"/>
</radialGradient>
<clipPath id="clip0_252_2">
<rect width="249" height="644.25" fill="white" transform="matrix(-1 0 0 -1 1814.25 3574.75)"/>
</clipPath>
<clipPath id="clip1_252_2">
<rect width="216.191" height="553.5" fill="white" transform="translate(583.5 2990.5)"/>
</clipPath>
</defs>
</svg>
