<svg width="401" height="400" viewBox="0 0 401 400" fill="none" xmlns="http://www.w3.org/2000/svg">
<g style="mix-blend-mode:overlay">
<circle cx="4" cy="3" r="3" fill="white"/>
<circle cx="22" cy="3" r="3" fill="white"/>
<circle cx="40" cy="3" r="3" fill="white"/>
<circle cx="58" cy="3" r="3" fill="white"/>
<circle cx="76" cy="3" r="3" fill="white"/>
<circle cx="94" cy="3" r="3" fill="white"/>
<circle cx="112" cy="3" r="3" fill="white"/>
<circle cx="130" cy="3" r="3" fill="white"/>
<circle cx="148" cy="3" r="3" fill="white"/>
<circle cx="166" cy="3" r="3" fill="white"/>
<circle cx="184" cy="3" r="3" fill="white"/>
<circle cx="202" cy="3" r="3" fill="white"/>
<circle cx="220" cy="3" r="3" fill="white"/>
<circle cx="238" cy="3" r="3" fill="white"/>
<circle cx="256" cy="3" r="3" fill="white"/>
<circle cx="274" cy="3" r="3" fill="white"/>
<circle cx="292" cy="3" r="3" fill="white"/>
<circle cx="310" cy="3" r="3" fill="white"/>
<circle cx="328" cy="3" r="3" fill="white"/>
<circle cx="346" cy="3" r="3" fill="white"/>
<circle cx="364" cy="3" r="3" fill="white"/>
<circle cx="382" cy="3" r="3" fill="white"/>
<circle cx="4" cy="21" r="3" fill="white"/>
<circle cx="22" cy="21" r="3" fill="white"/>
<circle cx="40" cy="21" r="3" fill="white"/>
<circle cx="58" cy="21" r="3" fill="white"/>
<circle cx="76" cy="21" r="3" fill="white"/>
<circle cx="94" cy="21" r="3" fill="white"/>
<circle cx="112" cy="21" r="3" fill="white"/>
<circle cx="130" cy="21" r="3" fill="white"/>
<circle cx="148" cy="21" r="3" fill="white"/>
<circle cx="166" cy="21" r="3" fill="white"/>
<circle cx="184" cy="21" r="3" fill="white"/>
<circle cx="202" cy="21" r="3" fill="white"/>
<circle cx="220" cy="21" r="3" fill="white"/>
<circle cx="238" cy="21" r="3" fill="white"/>
<circle cx="256" cy="21" r="3" fill="white"/>
<circle cx="274" cy="21" r="3" fill="white"/>
<circle cx="292" cy="21" r="3" fill="white"/>
<circle cx="310" cy="21" r="3" fill="white"/>
<circle cx="328" cy="21" r="3" fill="white"/>
<circle cx="346" cy="21" r="3" fill="white"/>
<circle cx="364" cy="21" r="3" fill="white"/>
<circle cx="382" cy="21" r="3" fill="white"/>
<circle cx="4" cy="39" r="3" fill="white"/>
<circle cx="22" cy="39" r="3" fill="white"/>
<circle cx="40" cy="39" r="3" fill="white"/>
<circle cx="58" cy="39" r="3" fill="white"/>
<circle cx="76" cy="39" r="3" fill="white"/>
<circle cx="94" cy="39" r="3" fill="white"/>
<circle cx="112" cy="39" r="3" fill="white"/>
<circle cx="130" cy="39" r="3" fill="white"/>
<circle cx="148" cy="39" r="3" fill="white"/>
<circle cx="166" cy="39" r="3" fill="white"/>
<circle cx="184" cy="39" r="3" fill="white"/>
<circle cx="202" cy="39" r="3" fill="white"/>
<circle cx="220" cy="39" r="3" fill="white"/>
<circle cx="238" cy="39" r="3" fill="white"/>
<circle cx="256" cy="39" r="3" fill="white"/>
<circle cx="274" cy="39" r="3" fill="white"/>
<circle cx="292" cy="39" r="3" fill="white"/>
<circle cx="310" cy="39" r="3" fill="white"/>
<circle cx="328" cy="39" r="3" fill="white"/>
<circle cx="346" cy="39" r="3" fill="white"/>
<circle cx="364" cy="39" r="3" fill="white"/>
<circle cx="382" cy="39" r="3" fill="white"/>
<circle cx="4" cy="57" r="3" fill="white"/>
<circle cx="22" cy="57" r="3" fill="white"/>
<circle cx="40" cy="57" r="3" fill="white"/>
<circle cx="58" cy="57" r="3" fill="white"/>
<circle cx="76" cy="57" r="3" fill="white"/>
<circle cx="94" cy="57" r="3" fill="white"/>
<circle cx="112" cy="57" r="3" fill="white"/>
<circle cx="130" cy="57" r="3" fill="white"/>
<circle cx="148" cy="57" r="3" fill="white"/>
<circle cx="166" cy="57" r="3" fill="white"/>
<circle cx="184" cy="57" r="3" fill="white"/>
<circle cx="202" cy="57" r="3" fill="white"/>
<circle cx="220" cy="57" r="3" fill="white"/>
<circle cx="238" cy="57" r="3" fill="white"/>
<circle cx="256" cy="57" r="3" fill="white"/>
<circle cx="274" cy="57" r="3" fill="white"/>
<circle cx="292" cy="57" r="3" fill="white"/>
<circle cx="310" cy="57" r="3" fill="white"/>
<circle cx="328" cy="57" r="3" fill="white"/>
<circle cx="346" cy="57" r="3" fill="white"/>
<circle cx="364" cy="57" r="3" fill="white"/>
<circle cx="382" cy="57" r="3" fill="white"/>
<circle cx="4" cy="75" r="3" fill="white"/>
<circle cx="22" cy="75" r="3" fill="white"/>
<circle cx="40" cy="75" r="3" fill="white"/>
<circle cx="58" cy="75" r="3" fill="white"/>
<circle cx="76" cy="75" r="3" fill="white"/>
<circle cx="94" cy="75" r="3" fill="white"/>
<circle cx="112" cy="75" r="3" fill="white"/>
<circle cx="130" cy="75" r="3" fill="white"/>
<circle cx="148" cy="75" r="3" fill="white"/>
<circle cx="166" cy="75" r="3" fill="white"/>
<circle cx="184" cy="75" r="3" fill="white"/>
<circle cx="202" cy="75" r="3" fill="white"/>
<circle cx="220" cy="75" r="3" fill="white"/>
<circle cx="238" cy="75" r="3" fill="white"/>
<circle cx="256" cy="75" r="3" fill="white"/>
<circle cx="274" cy="75" r="3" fill="white"/>
<circle cx="292" cy="75" r="3" fill="white"/>
<circle cx="310" cy="75" r="3" fill="white"/>
<circle cx="328" cy="75" r="3" fill="white"/>
<circle cx="346" cy="75" r="3" fill="white"/>
<circle cx="364" cy="75" r="3" fill="white"/>
<circle cx="382" cy="75" r="3" fill="white"/>
<circle cx="4" cy="93" r="3" fill="white"/>
<circle cx="22" cy="93" r="3" fill="white"/>
<circle cx="40" cy="93" r="3" fill="white"/>
<circle cx="58" cy="93" r="3" fill="white"/>
<circle cx="76" cy="93" r="3" fill="white"/>
<circle cx="94" cy="93" r="3" fill="white"/>
<circle cx="112" cy="93" r="3" fill="white"/>
<circle cx="130" cy="93" r="3" fill="white"/>
<circle cx="148" cy="93" r="3" fill="white"/>
<circle cx="166" cy="93" r="3" fill="white"/>
<circle cx="184" cy="93" r="3" fill="white"/>
<circle cx="202" cy="93" r="3" fill="white"/>
<circle cx="220" cy="93" r="3" fill="white"/>
<circle cx="238" cy="93" r="3" fill="white"/>
<circle cx="256" cy="93" r="3" fill="white"/>
<circle cx="274" cy="93" r="3" fill="white"/>
<circle cx="292" cy="93" r="3" fill="white"/>
<circle cx="310" cy="93" r="3" fill="white"/>
<circle cx="328" cy="93" r="3" fill="white"/>
<circle cx="346" cy="93" r="3" fill="white"/>
<circle cx="364" cy="93" r="3" fill="white"/>
<circle cx="382" cy="93" r="3" fill="white"/>
<circle cx="4" cy="111" r="3" fill="white"/>
<circle cx="22" cy="111" r="3" fill="white"/>
<circle cx="40" cy="111" r="3" fill="white"/>
<circle cx="58" cy="111" r="3" fill="white"/>
<circle cx="76" cy="111" r="3" fill="white"/>
<circle cx="94" cy="111" r="3" fill="white"/>
<circle cx="112" cy="111" r="3" fill="white"/>
<circle cx="130" cy="111" r="3" fill="white"/>
<circle cx="148" cy="111" r="3" fill="white"/>
<circle cx="166" cy="111" r="3" fill="white"/>
<circle cx="184" cy="111" r="3" fill="white"/>
<circle cx="202" cy="111" r="3" fill="white"/>
<circle cx="220" cy="111" r="3" fill="white"/>
<circle cx="238" cy="111" r="3" fill="white"/>
<circle cx="256" cy="111" r="3" fill="white"/>
<circle cx="274" cy="111" r="3" fill="white"/>
<circle cx="292" cy="111" r="3" fill="white"/>
<circle cx="310" cy="111" r="3" fill="white"/>
<circle cx="328" cy="111" r="3" fill="white"/>
<circle cx="346" cy="111" r="3" fill="white"/>
<circle cx="364" cy="111" r="3" fill="white"/>
<circle cx="382" cy="111" r="3" fill="white"/>
<circle cx="4" cy="129" r="3" fill="white"/>
<circle cx="22" cy="129" r="3" fill="white"/>
<circle cx="40" cy="129" r="3" fill="white"/>
<circle cx="58" cy="129" r="3" fill="white"/>
<circle cx="76" cy="129" r="3" fill="white"/>
<circle cx="94" cy="129" r="3" fill="white"/>
<circle cx="112" cy="129" r="3" fill="white"/>
<circle cx="130" cy="129" r="3" fill="white"/>
<circle cx="148" cy="129" r="3" fill="white"/>
<circle cx="166" cy="129" r="3" fill="white"/>
<circle cx="184" cy="129" r="3" fill="white"/>
<circle cx="202" cy="129" r="3" fill="white"/>
<circle cx="220" cy="129" r="3" fill="white"/>
<circle cx="238" cy="129" r="3" fill="white"/>
<circle cx="256" cy="129" r="3" fill="white"/>
<circle cx="274" cy="129" r="3" fill="white"/>
<circle cx="292" cy="129" r="3" fill="white"/>
<circle cx="310" cy="129" r="3" fill="white"/>
<circle cx="328" cy="129" r="3" fill="white"/>
<circle cx="346" cy="129" r="3" fill="white"/>
<circle cx="364" cy="129" r="3" fill="white"/>
<circle cx="382" cy="129" r="3" fill="white"/>
<circle cx="4" cy="147" r="3" fill="white"/>
<circle cx="22" cy="147" r="3" fill="white"/>
<circle cx="40" cy="147" r="3" fill="white"/>
<circle cx="58" cy="147" r="3" fill="white"/>
<circle cx="76" cy="147" r="3" fill="white"/>
<circle cx="94" cy="147" r="3" fill="white"/>
<circle cx="112" cy="147" r="3" fill="white"/>
<circle cx="130" cy="147" r="3" fill="white"/>
<circle cx="148" cy="147" r="3" fill="white"/>
<circle cx="166" cy="147" r="3" fill="white"/>
<circle cx="184" cy="147" r="3" fill="white"/>
<circle cx="202" cy="147" r="3" fill="white"/>
<circle cx="220" cy="147" r="3" fill="white"/>
<circle cx="238" cy="147" r="3" fill="white"/>
<circle cx="256" cy="147" r="3" fill="white"/>
<circle cx="274" cy="147" r="3" fill="white"/>
<circle cx="292" cy="147" r="3" fill="white"/>
<circle cx="310" cy="147" r="3" fill="white"/>
<circle cx="328" cy="147" r="3" fill="white"/>
<circle cx="346" cy="147" r="3" fill="white"/>
<circle cx="364" cy="147" r="3" fill="white"/>
<circle cx="382" cy="147" r="3" fill="white"/>
<circle cx="4" cy="165" r="3" fill="white"/>
<circle cx="22" cy="165" r="3" fill="white"/>
<circle cx="40" cy="165" r="3" fill="white"/>
<circle cx="58" cy="165" r="3" fill="white"/>
<circle cx="76" cy="165" r="3" fill="white"/>
<circle cx="94" cy="165" r="3" fill="white"/>
<circle cx="112" cy="165" r="3" fill="white"/>
<circle cx="130" cy="165" r="3" fill="white"/>
<circle cx="148" cy="165" r="3" fill="white"/>
<circle cx="166" cy="165" r="3" fill="white"/>
<circle cx="184" cy="165" r="3" fill="white"/>
<circle cx="202" cy="165" r="3" fill="white"/>
<circle cx="220" cy="165" r="3" fill="white"/>
<circle cx="238" cy="165" r="3" fill="white"/>
<circle cx="256" cy="165" r="3" fill="white"/>
<circle cx="274" cy="165" r="3" fill="white"/>
<circle cx="292" cy="165" r="3" fill="white"/>
<circle cx="310" cy="165" r="3" fill="white"/>
<circle cx="328" cy="165" r="3" fill="white"/>
<circle cx="346" cy="165" r="3" fill="white"/>
<circle cx="364" cy="165" r="3" fill="white"/>
<circle cx="382" cy="165" r="3" fill="white"/>
<circle cx="4" cy="183" r="3" fill="white"/>
<circle cx="22" cy="183" r="3" fill="white"/>
<circle cx="40" cy="183" r="3" fill="white"/>
<circle cx="58" cy="183" r="3" fill="white"/>
<circle cx="76" cy="183" r="3" fill="white"/>
<circle cx="94" cy="183" r="3" fill="white"/>
<circle cx="112" cy="183" r="3" fill="white"/>
<circle cx="130" cy="183" r="3" fill="white"/>
<circle cx="148" cy="183" r="3" fill="white"/>
<circle cx="166" cy="183" r="3" fill="white"/>
<circle cx="184" cy="183" r="3" fill="white"/>
<circle cx="202" cy="183" r="3" fill="white"/>
<circle cx="220" cy="183" r="3" fill="white"/>
<circle cx="238" cy="183" r="3" fill="white"/>
<circle cx="256" cy="183" r="3" fill="white"/>
<circle cx="274" cy="183" r="3" fill="white"/>
<circle cx="292" cy="183" r="3" fill="white"/>
<circle cx="310" cy="183" r="3" fill="white"/>
<circle cx="328" cy="183" r="3" fill="white"/>
<circle cx="346" cy="183" r="3" fill="white"/>
<circle cx="364" cy="183" r="3" fill="white"/>
<circle cx="382" cy="183" r="3" fill="white"/>
<circle cx="4" cy="201" r="3" fill="white"/>
<circle cx="22" cy="201" r="3" fill="white"/>
<circle cx="40" cy="201" r="3" fill="white"/>
<circle cx="58" cy="201" r="3" fill="white"/>
<circle cx="76" cy="201" r="3" fill="white"/>
<circle cx="94" cy="201" r="3" fill="white"/>
<circle cx="112" cy="201" r="3" fill="white"/>
<circle cx="130" cy="201" r="3" fill="white"/>
<circle cx="148" cy="201" r="3" fill="white"/>
<circle cx="166" cy="201" r="3" fill="white"/>
<circle cx="184" cy="201" r="3" fill="white"/>
<circle cx="202" cy="201" r="3" fill="white"/>
<circle cx="220" cy="201" r="3" fill="white"/>
<circle cx="238" cy="201" r="3" fill="white"/>
<circle cx="256" cy="201" r="3" fill="white"/>
<circle cx="274" cy="201" r="3" fill="white"/>
<circle cx="292" cy="201" r="3" fill="white"/>
<circle cx="310" cy="201" r="3" fill="white"/>
<circle cx="328" cy="201" r="3" fill="white"/>
<circle cx="346" cy="201" r="3" fill="white"/>
<circle cx="364" cy="201" r="3" fill="white"/>
<circle cx="382" cy="201" r="3" fill="white"/>
<circle cx="4" cy="219" r="3" fill="white"/>
<circle cx="22" cy="219" r="3" fill="white"/>
<circle cx="40" cy="219" r="3" fill="white"/>
<circle cx="58" cy="219" r="3" fill="white"/>
<circle cx="76" cy="219" r="3" fill="white"/>
<circle cx="94" cy="219" r="3" fill="white"/>
<circle cx="112" cy="219" r="3" fill="white"/>
<circle cx="130" cy="219" r="3" fill="white"/>
<circle cx="148" cy="219" r="3" fill="white"/>
<circle cx="166" cy="219" r="3" fill="white"/>
<circle cx="184" cy="219" r="3" fill="white"/>
<circle cx="202" cy="219" r="3" fill="white"/>
<circle cx="220" cy="219" r="3" fill="white"/>
<circle cx="238" cy="219" r="3" fill="white"/>
<circle cx="256" cy="219" r="3" fill="white"/>
<circle cx="274" cy="219" r="3" fill="white"/>
<circle cx="292" cy="219" r="3" fill="white"/>
<circle cx="310" cy="219" r="3" fill="white"/>
<circle cx="328" cy="219" r="3" fill="white"/>
<circle cx="346" cy="219" r="3" fill="white"/>
<circle cx="364" cy="219" r="3" fill="white"/>
<circle cx="382" cy="219" r="3" fill="white"/>
<circle cx="4" cy="237" r="3" fill="white"/>
<circle cx="22" cy="237" r="3" fill="white"/>
<circle cx="40" cy="237" r="3" fill="white"/>
<circle cx="58" cy="237" r="3" fill="white"/>
<circle cx="76" cy="237" r="3" fill="white"/>
<circle cx="94" cy="237" r="3" fill="white"/>
<circle cx="112" cy="237" r="3" fill="white"/>
<circle cx="130" cy="237" r="3" fill="white"/>
<circle cx="148" cy="237" r="3" fill="white"/>
<circle cx="166" cy="237" r="3" fill="white"/>
<circle cx="184" cy="237" r="3" fill="white"/>
<circle cx="202" cy="237" r="3" fill="white"/>
<circle cx="220" cy="237" r="3" fill="white"/>
<circle cx="238" cy="237" r="3" fill="white"/>
<circle cx="256" cy="237" r="3" fill="white"/>
<circle cx="274" cy="237" r="3" fill="white"/>
<circle cx="292" cy="237" r="3" fill="white"/>
<circle cx="310" cy="237" r="3" fill="white"/>
<circle cx="328" cy="237" r="3" fill="white"/>
<circle cx="346" cy="237" r="3" fill="white"/>
<circle cx="364" cy="237" r="3" fill="white"/>
<circle cx="382" cy="237" r="3" fill="white"/>
<circle cx="4" cy="255" r="3" fill="white"/>
<circle cx="22" cy="255" r="3" fill="white"/>
<circle cx="40" cy="255" r="3" fill="white"/>
<circle cx="58" cy="255" r="3" fill="white"/>
<circle cx="76" cy="255" r="3" fill="white"/>
<circle cx="94" cy="255" r="3" fill="white"/>
<circle cx="112" cy="255" r="3" fill="white"/>
<circle cx="130" cy="255" r="3" fill="white"/>
<circle cx="148" cy="255" r="3" fill="white"/>
<circle cx="166" cy="255" r="3" fill="white"/>
<circle cx="184" cy="255" r="3" fill="white"/>
<circle cx="202" cy="255" r="3" fill="white"/>
<circle cx="220" cy="255" r="3" fill="white"/>
<circle cx="238" cy="255" r="3" fill="white"/>
<circle cx="256" cy="255" r="3" fill="white"/>
<circle cx="274" cy="255" r="3" fill="white"/>
<circle cx="292" cy="255" r="3" fill="white"/>
<circle cx="310" cy="255" r="3" fill="white"/>
<circle cx="328" cy="255" r="3" fill="white"/>
<circle cx="346" cy="255" r="3" fill="white"/>
<circle cx="364" cy="255" r="3" fill="white"/>
<circle cx="382" cy="255" r="3" fill="white"/>
<circle cx="4" cy="273" r="3" fill="white"/>
<circle cx="22" cy="273" r="3" fill="white"/>
<circle cx="40" cy="273" r="3" fill="white"/>
<circle cx="58" cy="273" r="3" fill="white"/>
<circle cx="76" cy="273" r="3" fill="white"/>
<circle cx="94" cy="273" r="3" fill="white"/>
<circle cx="112" cy="273" r="3" fill="white"/>
<circle cx="130" cy="273" r="3" fill="white"/>
<circle cx="148" cy="273" r="3" fill="white"/>
<circle cx="166" cy="273" r="3" fill="white"/>
<circle cx="184" cy="273" r="3" fill="white"/>
<circle cx="202" cy="273" r="3" fill="white"/>
<circle cx="220" cy="273" r="3" fill="white"/>
<circle cx="238" cy="273" r="3" fill="white"/>
<circle cx="256" cy="273" r="3" fill="white"/>
<circle cx="274" cy="273" r="3" fill="white"/>
<circle cx="292" cy="273" r="3" fill="white"/>
<circle cx="310" cy="273" r="3" fill="white"/>
<circle cx="328" cy="273" r="3" fill="white"/>
<circle cx="346" cy="273" r="3" fill="white"/>
<circle cx="364" cy="273" r="3" fill="white"/>
<circle cx="382" cy="273" r="3" fill="white"/>
<circle cx="4" cy="291" r="3" fill="white"/>
<circle cx="22" cy="291" r="3" fill="white"/>
<circle cx="40" cy="291" r="3" fill="white"/>
<circle cx="58" cy="291" r="3" fill="white"/>
<circle cx="76" cy="291" r="3" fill="white"/>
<circle cx="94" cy="291" r="3" fill="white"/>
<circle cx="112" cy="291" r="3" fill="white"/>
<circle cx="130" cy="291" r="3" fill="white"/>
<circle cx="148" cy="291" r="3" fill="white"/>
<circle cx="166" cy="291" r="3" fill="white"/>
<circle cx="184" cy="291" r="3" fill="white"/>
<circle cx="202" cy="291" r="3" fill="white"/>
<circle cx="220" cy="291" r="3" fill="white"/>
<circle cx="238" cy="291" r="3" fill="white"/>
<circle cx="256" cy="291" r="3" fill="white"/>
<circle cx="274" cy="291" r="3" fill="white"/>
<circle cx="292" cy="291" r="3" fill="white"/>
<circle cx="310" cy="291" r="3" fill="white"/>
<circle cx="328" cy="291" r="3" fill="white"/>
<circle cx="346" cy="291" r="3" fill="white"/>
<circle cx="364" cy="291" r="3" fill="white"/>
<circle cx="382" cy="291" r="3" fill="white"/>
<circle cx="4" cy="309" r="3" fill="white"/>
<circle cx="22" cy="309" r="3" fill="white"/>
<circle cx="40" cy="309" r="3" fill="white"/>
<circle cx="58" cy="309" r="3" fill="white"/>
<circle cx="76" cy="309" r="3" fill="white"/>
<circle cx="94" cy="309" r="3" fill="white"/>
<circle cx="112" cy="309" r="3" fill="white"/>
<circle cx="130" cy="309" r="3" fill="white"/>
<circle cx="148" cy="309" r="3" fill="white"/>
<circle cx="166" cy="309" r="3" fill="white"/>
<circle cx="184" cy="309" r="3" fill="white"/>
<circle cx="202" cy="309" r="3" fill="white"/>
<circle cx="220" cy="309" r="3" fill="white"/>
<circle cx="238" cy="309" r="3" fill="white"/>
<circle cx="256" cy="309" r="3" fill="white"/>
<circle cx="274" cy="309" r="3" fill="white"/>
<circle cx="292" cy="309" r="3" fill="white"/>
<circle cx="310" cy="309" r="3" fill="white"/>
<circle cx="328" cy="309" r="3" fill="white"/>
<circle cx="346" cy="309" r="3" fill="white"/>
<circle cx="364" cy="309" r="3" fill="white"/>
<circle cx="382" cy="309" r="3" fill="white"/>
<circle cx="4" cy="327" r="3" fill="white"/>
<circle cx="22" cy="327" r="3" fill="white"/>
<circle cx="40" cy="327" r="3" fill="white"/>
<circle cx="58" cy="327" r="3" fill="white"/>
<circle cx="76" cy="327" r="3" fill="white"/>
<circle cx="94" cy="327" r="3" fill="white"/>
<circle cx="112" cy="327" r="3" fill="white"/>
<circle cx="130" cy="327" r="3" fill="white"/>
<circle cx="148" cy="327" r="3" fill="white"/>
<circle cx="166" cy="327" r="3" fill="white"/>
<circle cx="184" cy="327" r="3" fill="white"/>
<circle cx="202" cy="327" r="3" fill="white"/>
<circle cx="220" cy="327" r="3" fill="white"/>
<circle cx="238" cy="327" r="3" fill="white"/>
<circle cx="256" cy="327" r="3" fill="white"/>
<circle cx="274" cy="327" r="3" fill="white"/>
<circle cx="292" cy="327" r="3" fill="white"/>
<circle cx="310" cy="327" r="3" fill="white"/>
<circle cx="328" cy="327" r="3" fill="white"/>
<circle cx="346" cy="327" r="3" fill="white"/>
<circle cx="364" cy="327" r="3" fill="white"/>
<circle cx="382" cy="327" r="3" fill="white"/>
<circle cx="4" cy="345" r="3" fill="white"/>
<circle cx="22" cy="345" r="3" fill="white"/>
<circle cx="40" cy="345" r="3" fill="white"/>
<circle cx="58" cy="345" r="3" fill="white"/>
<circle cx="76" cy="345" r="3" fill="white"/>
<circle cx="94" cy="345" r="3" fill="white"/>
<circle cx="112" cy="345" r="3" fill="white"/>
<circle cx="130" cy="345" r="3" fill="white"/>
<circle cx="148" cy="345" r="3" fill="white"/>
<circle cx="166" cy="345" r="3" fill="white"/>
<circle cx="184" cy="345" r="3" fill="white"/>
<circle cx="202" cy="345" r="3" fill="white"/>
<circle cx="220" cy="345" r="3" fill="white"/>
<circle cx="238" cy="345" r="3" fill="white"/>
<circle cx="256" cy="345" r="3" fill="white"/>
<circle cx="274" cy="345" r="3" fill="white"/>
<circle cx="292" cy="345" r="3" fill="white"/>
<circle cx="310" cy="345" r="3" fill="white"/>
<circle cx="328" cy="345" r="3" fill="white"/>
<circle cx="346" cy="345" r="3" fill="white"/>
<circle cx="364" cy="345" r="3" fill="white"/>
<circle cx="382" cy="345" r="3" fill="white"/>
<circle cx="4" cy="363" r="3" fill="white"/>
<circle cx="22" cy="363" r="3" fill="white"/>
<circle cx="40" cy="363" r="3" fill="white"/>
<circle cx="58" cy="363" r="3" fill="white"/>
<circle cx="76" cy="363" r="3" fill="white"/>
<circle cx="94" cy="363" r="3" fill="white"/>
<circle cx="112" cy="363" r="3" fill="white"/>
<circle cx="130" cy="363" r="3" fill="white"/>
<circle cx="148" cy="363" r="3" fill="white"/>
<circle cx="166" cy="363" r="3" fill="white"/>
<circle cx="184" cy="363" r="3" fill="white"/>
<circle cx="202" cy="363" r="3" fill="white"/>
<circle cx="220" cy="363" r="3" fill="white"/>
<circle cx="238" cy="363" r="3" fill="white"/>
<circle cx="256" cy="363" r="3" fill="white"/>
<circle cx="274" cy="363" r="3" fill="white"/>
<circle cx="292" cy="363" r="3" fill="white"/>
<circle cx="310" cy="363" r="3" fill="white"/>
<circle cx="328" cy="363" r="3" fill="white"/>
<circle cx="346" cy="363" r="3" fill="white"/>
<circle cx="364" cy="363" r="3" fill="white"/>
<circle cx="382" cy="363" r="3" fill="white"/>
<circle cx="4" cy="381" r="3" fill="white"/>
<circle cx="22" cy="381" r="3" fill="white"/>
<circle cx="40" cy="381" r="3" fill="white"/>
<circle cx="58" cy="381" r="3" fill="white"/>
<circle cx="76" cy="381" r="3" fill="white"/>
<circle cx="94" cy="381" r="3" fill="white"/>
<circle cx="112" cy="381" r="3" fill="white"/>
<circle cx="130" cy="381" r="3" fill="white"/>
<circle cx="148" cy="381" r="3" fill="white"/>
<circle cx="166" cy="381" r="3" fill="white"/>
<circle cx="184" cy="381" r="3" fill="white"/>
<circle cx="202" cy="381" r="3" fill="white"/>
<circle cx="220" cy="381" r="3" fill="white"/>
<circle cx="238" cy="381" r="3" fill="white"/>
<circle cx="256" cy="381" r="3" fill="white"/>
<circle cx="274" cy="381" r="3" fill="white"/>
<circle cx="292" cy="381" r="3" fill="white"/>
<circle cx="310" cy="381" r="3" fill="white"/>
<circle cx="328" cy="381" r="3" fill="white"/>
<circle cx="346" cy="381" r="3" fill="white"/>
<circle cx="364" cy="381" r="3" fill="white"/>
<circle cx="382" cy="381" r="3" fill="white"/>
</g>
<path d="M0 0H385V386H0V0Z" fill="url(#paint0_linear_258_430)"/>
<defs>
<linearGradient id="paint0_linear_258_430" x1="140" y1="206" x2="385" y2="400" gradientUnits="userSpaceOnUse">
<stop offset="0.0001" stop-color="#303C30"/>
<stop offset="0.354167" stop-color="#252525" stop-opacity="0"/>
</linearGradient>
</defs>
</svg>
