<svg width="372" height="400" viewBox="0 0 372 400" fill="none" xmlns="http://www.w3.org/2000/svg">
<g style="mix-blend-mode:overlay">
<circle cx="368" cy="397" r="3" transform="rotate(180 368 397)" fill="#fbfcf2"/>
<circle cx="350" cy="397" r="3" transform="rotate(180 350 397)" fill="#fbfcf2"/>
<circle cx="332" cy="397" r="3" transform="rotate(180 332 397)" fill="#fbfcf2"/>
<circle cx="314" cy="397" r="3" transform="rotate(180 314 397)" fill="#fbfcf2"/>
<circle cx="296" cy="397" r="3" transform="rotate(180 296 397)" fill="#fbfcf2"/>
<circle cx="278" cy="397" r="3" transform="rotate(180 278 397)" fill="#fbfcf2"/>
<circle cx="260" cy="397" r="3" transform="rotate(180 260 397)" fill="#fbfcf2"/>
<circle cx="242" cy="397" r="3" transform="rotate(180 242 397)" fill="#fbfcf2"/>
<circle cx="224" cy="397" r="3" transform="rotate(180 224 397)" fill="#fbfcf2"/>
<circle cx="206" cy="397" r="3" transform="rotate(180 206 397)" fill="#fbfcf2"/>
<circle cx="188" cy="397" r="3" transform="rotate(180 188 397)" fill="#fbfcf2"/>
<circle cx="170" cy="397" r="3" transform="rotate(180 170 397)" fill="#fbfcf2"/>
<circle cx="152" cy="397" r="3" transform="rotate(180 152 397)" fill="#fbfcf2"/>
<circle cx="134" cy="397" r="3" transform="rotate(180 134 397)" fill="#fbfcf2"/>
<circle cx="116" cy="397" r="3" transform="rotate(180 116 397)" fill="#fbfcf2"/>
<circle cx="98" cy="397" r="3" transform="rotate(180 98 397)" fill="#fbfcf2"/>
<circle cx="80" cy="397" r="3" transform="rotate(180 80 397)" fill="#fbfcf2"/>
<circle cx="62" cy="397" r="3" transform="rotate(180 62 397)" fill="#fbfcf2"/>
<circle cx="44" cy="397" r="3" transform="rotate(180 44 397)" fill="#fbfcf2"/>
<circle cx="26" cy="397" r="3" transform="rotate(180 26 397)" fill="#fbfcf2"/>
<circle cx="8" cy="397" r="3" transform="rotate(180 8 397)" fill="#fbfcf2"/>
<circle cx="368" cy="379" r="3" transform="rotate(180 368 379)" fill="#fbfcf2"/>
<circle cx="350" cy="379" r="3" transform="rotate(180 350 379)" fill="#fbfcf2"/>
<circle cx="332" cy="379" r="3" transform="rotate(180 332 379)" fill="#fbfcf2"/>
<circle cx="314" cy="379" r="3" transform="rotate(180 314 379)" fill="#fbfcf2"/>
<circle cx="296" cy="379" r="3" transform="rotate(180 296 379)" fill="#fbfcf2"/>
<circle cx="278" cy="379" r="3" transform="rotate(180 278 379)" fill="#fbfcf2"/>
<circle cx="260" cy="379" r="3" transform="rotate(180 260 379)" fill="#fbfcf2"/>
<circle cx="242" cy="379" r="3" transform="rotate(180 242 379)" fill="#fbfcf2"/>
<circle cx="224" cy="379" r="3" transform="rotate(180 224 379)" fill="#fbfcf2"/>
<circle cx="206" cy="379" r="3" transform="rotate(180 206 379)" fill="#fbfcf2"/>
<circle cx="188" cy="379" r="3" transform="rotate(180 188 379)" fill="#fbfcf2"/>
<circle cx="170" cy="379" r="3" transform="rotate(180 170 379)" fill="#fbfcf2"/>
<circle cx="152" cy="379" r="3" transform="rotate(180 152 379)" fill="#fbfcf2"/>
<circle cx="134" cy="379" r="3" transform="rotate(180 134 379)" fill="#fbfcf2"/>
<circle cx="116" cy="379" r="3" transform="rotate(180 116 379)" fill="#fbfcf2"/>
<circle cx="98" cy="379" r="3" transform="rotate(180 98 379)" fill="#fbfcf2"/>
<circle cx="80" cy="379" r="3" transform="rotate(180 80 379)" fill="#fbfcf2"/>
<circle cx="62" cy="379" r="3" transform="rotate(180 62 379)" fill="#fbfcf2"/>
<circle cx="44" cy="379" r="3" transform="rotate(180 44 379)" fill="#fbfcf2"/>
<circle cx="26" cy="379" r="3" transform="rotate(180 26 379)" fill="#fbfcf2"/>
<circle cx="8" cy="379" r="3" transform="rotate(180 8 379)" fill="#fbfcf2"/>
<circle cx="368" cy="361" r="3" transform="rotate(180 368 361)" fill="#fbfcf2"/>
<circle cx="350" cy="361" r="3" transform="rotate(180 350 361)" fill="#fbfcf2"/>
<circle cx="332" cy="361" r="3" transform="rotate(180 332 361)" fill="#fbfcf2"/>
<circle cx="314" cy="361" r="3" transform="rotate(180 314 361)" fill="#fbfcf2"/>
<circle cx="296" cy="361" r="3" transform="rotate(180 296 361)" fill="#fbfcf2"/>
<circle cx="278" cy="361" r="3" transform="rotate(180 278 361)" fill="#fbfcf2"/>
<circle cx="260" cy="361" r="3" transform="rotate(180 260 361)" fill="#fbfcf2"/>
<circle cx="242" cy="361" r="3" transform="rotate(180 242 361)" fill="#fbfcf2"/>
<circle cx="224" cy="361" r="3" transform="rotate(180 224 361)" fill="#fbfcf2"/>
<circle cx="206" cy="361" r="3" transform="rotate(180 206 361)" fill="#fbfcf2"/>
<circle cx="188" cy="361" r="3" transform="rotate(180 188 361)" fill="#fbfcf2"/>
<circle cx="170" cy="361" r="3" transform="rotate(180 170 361)" fill="#fbfcf2"/>
<circle cx="152" cy="361" r="3" transform="rotate(180 152 361)" fill="#fbfcf2"/>
<circle cx="134" cy="361" r="3" transform="rotate(180 134 361)" fill="#fbfcf2"/>
<circle cx="116" cy="361" r="3" transform="rotate(180 116 361)" fill="#fbfcf2"/>
<circle cx="98" cy="361" r="3" transform="rotate(180 98 361)" fill="#fbfcf2"/>
<circle cx="80" cy="361" r="3" transform="rotate(180 80 361)" fill="#fbfcf2"/>
<circle cx="62" cy="361" r="3" transform="rotate(180 62 361)" fill="#fbfcf2"/>
<circle cx="44" cy="361" r="3" transform="rotate(180 44 361)" fill="#fbfcf2"/>
<circle cx="26" cy="361" r="3" transform="rotate(180 26 361)" fill="#fbfcf2"/>
<circle cx="8" cy="361" r="3" transform="rotate(180 8 361)" fill="#fbfcf2"/>
<circle cx="368" cy="343" r="3" transform="rotate(180 368 343)" fill="#fbfcf2"/>
<circle cx="350" cy="343" r="3" transform="rotate(180 350 343)" fill="#fbfcf2"/>
<circle cx="332" cy="343" r="3" transform="rotate(180 332 343)" fill="#fbfcf2"/>
<circle cx="314" cy="343" r="3" transform="rotate(180 314 343)" fill="#fbfcf2"/>
<circle cx="296" cy="343" r="3" transform="rotate(180 296 343)" fill="#fbfcf2"/>
<circle cx="278" cy="343" r="3" transform="rotate(180 278 343)" fill="#fbfcf2"/>
<circle cx="260" cy="343" r="3" transform="rotate(180 260 343)" fill="#fbfcf2"/>
<circle cx="242" cy="343" r="3" transform="rotate(180 242 343)" fill="#fbfcf2"/>
<circle cx="224" cy="343" r="3" transform="rotate(180 224 343)" fill="#fbfcf2"/>
<circle cx="206" cy="343" r="3" transform="rotate(180 206 343)" fill="#fbfcf2"/>
<circle cx="188" cy="343" r="3" transform="rotate(180 188 343)" fill="#fbfcf2"/>
<circle cx="170" cy="343" r="3" transform="rotate(180 170 343)" fill="#fbfcf2"/>
<circle cx="152" cy="343" r="3" transform="rotate(180 152 343)" fill="#fbfcf2"/>
<circle cx="134" cy="343" r="3" transform="rotate(180 134 343)" fill="#fbfcf2"/>
<circle cx="116" cy="343" r="3" transform="rotate(180 116 343)" fill="#fbfcf2"/>
<circle cx="98" cy="343" r="3" transform="rotate(180 98 343)" fill="#fbfcf2"/>
<circle cx="80" cy="343" r="3" transform="rotate(180 80 343)" fill="#fbfcf2"/>
<circle cx="62" cy="343" r="3" transform="rotate(180 62 343)" fill="#fbfcf2"/>
<circle cx="44" cy="343" r="3" transform="rotate(180 44 343)" fill="#fbfcf2"/>
<circle cx="26" cy="343" r="3" transform="rotate(180 26 343)" fill="#fbfcf2"/>
<circle cx="8" cy="343" r="3" transform="rotate(180 8 343)" fill="#fbfcf2"/>
<circle cx="368" cy="325" r="3" transform="rotate(180 368 325)" fill="#fbfcf2"/>
<circle cx="350" cy="325" r="3" transform="rotate(180 350 325)" fill="#fbfcf2"/>
<circle cx="332" cy="325" r="3" transform="rotate(180 332 325)" fill="#fbfcf2"/>
<circle cx="314" cy="325" r="3" transform="rotate(180 314 325)" fill="#fbfcf2"/>
<circle cx="296" cy="325" r="3" transform="rotate(180 296 325)" fill="#fbfcf2"/>
<circle cx="278" cy="325" r="3" transform="rotate(180 278 325)" fill="#fbfcf2"/>
<circle cx="260" cy="325" r="3" transform="rotate(180 260 325)" fill="#fbfcf2"/>
<circle cx="242" cy="325" r="3" transform="rotate(180 242 325)" fill="#fbfcf2"/>
<circle cx="224" cy="325" r="3" transform="rotate(180 224 325)" fill="#fbfcf2"/>
<circle cx="206" cy="325" r="3" transform="rotate(180 206 325)" fill="#fbfcf2"/>
<circle cx="188" cy="325" r="3" transform="rotate(180 188 325)" fill="#fbfcf2"/>
<circle cx="170" cy="325" r="3" transform="rotate(180 170 325)" fill="#fbfcf2"/>
<circle cx="152" cy="325" r="3" transform="rotate(180 152 325)" fill="#fbfcf2"/>
<circle cx="134" cy="325" r="3" transform="rotate(180 134 325)" fill="#fbfcf2"/>
<circle cx="116" cy="325" r="3" transform="rotate(180 116 325)" fill="#fbfcf2"/>
<circle cx="98" cy="325" r="3" transform="rotate(180 98 325)" fill="#fbfcf2"/>
<circle cx="80" cy="325" r="3" transform="rotate(180 80 325)" fill="#fbfcf2"/>
<circle cx="62" cy="325" r="3" transform="rotate(180 62 325)" fill="#fbfcf2"/>
<circle cx="44" cy="325" r="3" transform="rotate(180 44 325)" fill="#fbfcf2"/>
<circle cx="26" cy="325" r="3" transform="rotate(180 26 325)" fill="#fbfcf2"/>
<circle cx="8" cy="325" r="3" transform="rotate(180 8 325)" fill="#fbfcf2"/>
<circle cx="368" cy="307" r="3" transform="rotate(180 368 307)" fill="#fbfcf2"/>
<circle cx="350" cy="307" r="3" transform="rotate(180 350 307)" fill="#fbfcf2"/>
<circle cx="332" cy="307" r="3" transform="rotate(180 332 307)" fill="#fbfcf2"/>
<circle cx="314" cy="307" r="3" transform="rotate(180 314 307)" fill="#fbfcf2"/>
<circle cx="296" cy="307" r="3" transform="rotate(180 296 307)" fill="#fbfcf2"/>
<circle cx="278" cy="307" r="3" transform="rotate(180 278 307)" fill="#fbfcf2"/>
<circle cx="260" cy="307" r="3" transform="rotate(180 260 307)" fill="#fbfcf2"/>
<circle cx="242" cy="307" r="3" transform="rotate(180 242 307)" fill="#fbfcf2"/>
<circle cx="224" cy="307" r="3" transform="rotate(180 224 307)" fill="#fbfcf2"/>
<circle cx="206" cy="307" r="3" transform="rotate(180 206 307)" fill="#fbfcf2"/>
<circle cx="188" cy="307" r="3" transform="rotate(180 188 307)" fill="#fbfcf2"/>
<circle cx="170" cy="307" r="3" transform="rotate(180 170 307)" fill="#fbfcf2"/>
<circle cx="152" cy="307" r="3" transform="rotate(180 152 307)" fill="#fbfcf2"/>
<circle cx="134" cy="307" r="3" transform="rotate(180 134 307)" fill="#fbfcf2"/>
<circle cx="116" cy="307" r="3" transform="rotate(180 116 307)" fill="#fbfcf2"/>
<circle cx="98" cy="307" r="3" transform="rotate(180 98 307)" fill="#fbfcf2"/>
<circle cx="80" cy="307" r="3" transform="rotate(180 80 307)" fill="#fbfcf2"/>
<circle cx="62" cy="307" r="3" transform="rotate(180 62 307)" fill="#fbfcf2"/>
<circle cx="44" cy="307" r="3" transform="rotate(180 44 307)" fill="#fbfcf2"/>
<circle cx="26" cy="307" r="3" transform="rotate(180 26 307)" fill="#fbfcf2"/>
<circle cx="8" cy="307" r="3" transform="rotate(180 8 307)" fill="#fbfcf2"/>
<circle cx="368" cy="289" r="3" transform="rotate(180 368 289)" fill="#fbfcf2"/>
<circle cx="350" cy="289" r="3" transform="rotate(180 350 289)" fill="#fbfcf2"/>
<circle cx="332" cy="289" r="3" transform="rotate(180 332 289)" fill="#fbfcf2"/>
<circle cx="314" cy="289" r="3" transform="rotate(180 314 289)" fill="#fbfcf2"/>
<circle cx="296" cy="289" r="3" transform="rotate(180 296 289)" fill="#fbfcf2"/>
<circle cx="278" cy="289" r="3" transform="rotate(180 278 289)" fill="#fbfcf2"/>
<circle cx="260" cy="289" r="3" transform="rotate(180 260 289)" fill="#fbfcf2"/>
<circle cx="242" cy="289" r="3" transform="rotate(180 242 289)" fill="#fbfcf2"/>
<circle cx="224" cy="289" r="3" transform="rotate(180 224 289)" fill="#fbfcf2"/>
<circle cx="206" cy="289" r="3" transform="rotate(180 206 289)" fill="#fbfcf2"/>
<circle cx="188" cy="289" r="3" transform="rotate(180 188 289)" fill="#fbfcf2"/>
<circle cx="170" cy="289" r="3" transform="rotate(180 170 289)" fill="#fbfcf2"/>
<circle cx="152" cy="289" r="3" transform="rotate(180 152 289)" fill="#fbfcf2"/>
<circle cx="134" cy="289" r="3" transform="rotate(180 134 289)" fill="#fbfcf2"/>
<circle cx="116" cy="289" r="3" transform="rotate(180 116 289)" fill="#fbfcf2"/>
<circle cx="98" cy="289" r="3" transform="rotate(180 98 289)" fill="#fbfcf2"/>
<circle cx="80" cy="289" r="3" transform="rotate(180 80 289)" fill="#fbfcf2"/>
<circle cx="62" cy="289" r="3" transform="rotate(180 62 289)" fill="#fbfcf2"/>
<circle cx="44" cy="289" r="3" transform="rotate(180 44 289)" fill="#fbfcf2"/>
<circle cx="26" cy="289" r="3" transform="rotate(180 26 289)" fill="#fbfcf2"/>
<circle cx="8" cy="289" r="3" transform="rotate(180 8 289)" fill="#fbfcf2"/>
<circle cx="368" cy="271" r="3" transform="rotate(180 368 271)" fill="#fbfcf2"/>
<circle cx="350" cy="271" r="3" transform="rotate(180 350 271)" fill="#fbfcf2"/>
<circle cx="332" cy="271" r="3" transform="rotate(180 332 271)" fill="#fbfcf2"/>
<circle cx="314" cy="271" r="3" transform="rotate(180 314 271)" fill="#fbfcf2"/>
<circle cx="296" cy="271" r="3" transform="rotate(180 296 271)" fill="#fbfcf2"/>
<circle cx="278" cy="271" r="3" transform="rotate(180 278 271)" fill="#fbfcf2"/>
<circle cx="260" cy="271" r="3" transform="rotate(180 260 271)" fill="#fbfcf2"/>
<circle cx="242" cy="271" r="3" transform="rotate(180 242 271)" fill="#fbfcf2"/>
<circle cx="224" cy="271" r="3" transform="rotate(180 224 271)" fill="#fbfcf2"/>
<circle cx="206" cy="271" r="3" transform="rotate(180 206 271)" fill="#fbfcf2"/>
<circle cx="188" cy="271" r="3" transform="rotate(180 188 271)" fill="#fbfcf2"/>
<circle cx="170" cy="271" r="3" transform="rotate(180 170 271)" fill="#fbfcf2"/>
<circle cx="152" cy="271" r="3" transform="rotate(180 152 271)" fill="#fbfcf2"/>
<circle cx="134" cy="271" r="3" transform="rotate(180 134 271)" fill="#fbfcf2"/>
<circle cx="116" cy="271" r="3" transform="rotate(180 116 271)" fill="#fbfcf2"/>
<circle cx="98" cy="271" r="3" transform="rotate(180 98 271)" fill="#fbfcf2"/>
<circle cx="80" cy="271" r="3" transform="rotate(180 80 271)" fill="#fbfcf2"/>
<circle cx="62" cy="271" r="3" transform="rotate(180 62 271)" fill="#fbfcf2"/>
<circle cx="44" cy="271" r="3" transform="rotate(180 44 271)" fill="#fbfcf2"/>
<circle cx="26" cy="271" r="3" transform="rotate(180 26 271)" fill="#fbfcf2"/>
<circle cx="8" cy="271" r="3" transform="rotate(180 8 271)" fill="#fbfcf2"/>
<circle cx="368" cy="253" r="3" transform="rotate(180 368 253)" fill="#fbfcf2"/>
<circle cx="350" cy="253" r="3" transform="rotate(180 350 253)" fill="#fbfcf2"/>
<circle cx="332" cy="253" r="3" transform="rotate(180 332 253)" fill="#fbfcf2"/>
<circle cx="314" cy="253" r="3" transform="rotate(180 314 253)" fill="#fbfcf2"/>
<circle cx="296" cy="253" r="3" transform="rotate(180 296 253)" fill="#fbfcf2"/>
<circle cx="278" cy="253" r="3" transform="rotate(180 278 253)" fill="#fbfcf2"/>
<circle cx="260" cy="253" r="3" transform="rotate(180 260 253)" fill="#fbfcf2"/>
<circle cx="242" cy="253" r="3" transform="rotate(180 242 253)" fill="#fbfcf2"/>
<circle cx="224" cy="253" r="3" transform="rotate(180 224 253)" fill="#fbfcf2"/>
<circle cx="206" cy="253" r="3" transform="rotate(180 206 253)" fill="#fbfcf2"/>
<circle cx="188" cy="253" r="3" transform="rotate(180 188 253)" fill="#fbfcf2"/>
<circle cx="170" cy="253" r="3" transform="rotate(180 170 253)" fill="#fbfcf2"/>
<circle cx="152" cy="253" r="3" transform="rotate(180 152 253)" fill="#fbfcf2"/>
<circle cx="134" cy="253" r="3" transform="rotate(180 134 253)" fill="#fbfcf2"/>
<circle cx="116" cy="253" r="3" transform="rotate(180 116 253)" fill="#fbfcf2"/>
<circle cx="98" cy="253" r="3" transform="rotate(180 98 253)" fill="#fbfcf2"/>
<circle cx="80" cy="253" r="3" transform="rotate(180 80 253)" fill="#fbfcf2"/>
<circle cx="62" cy="253" r="3" transform="rotate(180 62 253)" fill="#fbfcf2"/>
<circle cx="44" cy="253" r="3" transform="rotate(180 44 253)" fill="#fbfcf2"/>
<circle cx="26" cy="253" r="3" transform="rotate(180 26 253)" fill="#fbfcf2"/>
<circle cx="8" cy="253" r="3" transform="rotate(180 8 253)" fill="#fbfcf2"/>
<circle cx="368" cy="235" r="3" transform="rotate(180 368 235)" fill="#fbfcf2"/>
<circle cx="350" cy="235" r="3" transform="rotate(180 350 235)" fill="#fbfcf2"/>
<circle cx="332" cy="235" r="3" transform="rotate(180 332 235)" fill="#fbfcf2"/>
<circle cx="314" cy="235" r="3" transform="rotate(180 314 235)" fill="#fbfcf2"/>
<circle cx="296" cy="235" r="3" transform="rotate(180 296 235)" fill="#fbfcf2"/>
<circle cx="278" cy="235" r="3" transform="rotate(180 278 235)" fill="#fbfcf2"/>
<circle cx="260" cy="235" r="3" transform="rotate(180 260 235)" fill="#fbfcf2"/>
<circle cx="242" cy="235" r="3" transform="rotate(180 242 235)" fill="#fbfcf2"/>
<circle cx="224" cy="235" r="3" transform="rotate(180 224 235)" fill="#fbfcf2"/>
<circle cx="206" cy="235" r="3" transform="rotate(180 206 235)" fill="#fbfcf2"/>
<circle cx="188" cy="235" r="3" transform="rotate(180 188 235)" fill="#fbfcf2"/>
<circle cx="170" cy="235" r="3" transform="rotate(180 170 235)" fill="#fbfcf2"/>
<circle cx="152" cy="235" r="3" transform="rotate(180 152 235)" fill="#fbfcf2"/>
<circle cx="134" cy="235" r="3" transform="rotate(180 134 235)" fill="#fbfcf2"/>
<circle cx="116" cy="235" r="3" transform="rotate(180 116 235)" fill="#fbfcf2"/>
<circle cx="98" cy="235" r="3" transform="rotate(180 98 235)" fill="#fbfcf2"/>
<circle cx="80" cy="235" r="3" transform="rotate(180 80 235)" fill="#fbfcf2"/>
<circle cx="62" cy="235" r="3" transform="rotate(180 62 235)" fill="#fbfcf2"/>
<circle cx="44" cy="235" r="3" transform="rotate(180 44 235)" fill="#fbfcf2"/>
<circle cx="26" cy="235" r="3" transform="rotate(180 26 235)" fill="#fbfcf2"/>
<circle cx="8" cy="235" r="3" transform="rotate(180 8 235)" fill="#fbfcf2"/>
<circle cx="368" cy="217" r="3" transform="rotate(180 368 217)" fill="#fbfcf2"/>
<circle cx="350" cy="217" r="3" transform="rotate(180 350 217)" fill="#fbfcf2"/>
<circle cx="332" cy="217" r="3" transform="rotate(180 332 217)" fill="#fbfcf2"/>
<circle cx="314" cy="217" r="3" transform="rotate(180 314 217)" fill="#fbfcf2"/>
<circle cx="296" cy="217" r="3" transform="rotate(180 296 217)" fill="#fbfcf2"/>
<circle cx="278" cy="217" r="3" transform="rotate(180 278 217)" fill="#fbfcf2"/>
<circle cx="260" cy="217" r="3" transform="rotate(180 260 217)" fill="#fbfcf2"/>
<circle cx="242" cy="217" r="3" transform="rotate(180 242 217)" fill="#fbfcf2"/>
<circle cx="224" cy="217" r="3" transform="rotate(180 224 217)" fill="#fbfcf2"/>
<circle cx="206" cy="217" r="3" transform="rotate(180 206 217)" fill="#fbfcf2"/>
<circle cx="188" cy="217" r="3" transform="rotate(180 188 217)" fill="#fbfcf2"/>
<circle cx="170" cy="217" r="3" transform="rotate(180 170 217)" fill="#fbfcf2"/>
<circle cx="152" cy="217" r="3" transform="rotate(180 152 217)" fill="#fbfcf2"/>
<circle cx="134" cy="217" r="3" transform="rotate(180 134 217)" fill="#fbfcf2"/>
<circle cx="116" cy="217" r="3" transform="rotate(180 116 217)" fill="#fbfcf2"/>
<circle cx="98" cy="217" r="3" transform="rotate(180 98 217)" fill="#fbfcf2"/>
<circle cx="80" cy="217" r="3" transform="rotate(180 80 217)" fill="#fbfcf2"/>
<circle cx="62" cy="217" r="3" transform="rotate(180 62 217)" fill="#fbfcf2"/>
<circle cx="44" cy="217" r="3" transform="rotate(180 44 217)" fill="#fbfcf2"/>
<circle cx="26" cy="217" r="3" transform="rotate(180 26 217)" fill="#fbfcf2"/>
<circle cx="8" cy="217" r="3" transform="rotate(180 8 217)" fill="#fbfcf2"/>
<circle cx="368" cy="199" r="3" transform="rotate(180 368 199)" fill="#fbfcf2"/>
<circle cx="350" cy="199" r="3" transform="rotate(180 350 199)" fill="#fbfcf2"/>
<circle cx="332" cy="199" r="3" transform="rotate(180 332 199)" fill="#fbfcf2"/>
<circle cx="314" cy="199" r="3" transform="rotate(180 314 199)" fill="#fbfcf2"/>
<circle cx="296" cy="199" r="3" transform="rotate(180 296 199)" fill="#fbfcf2"/>
<circle cx="278" cy="199" r="3" transform="rotate(180 278 199)" fill="#fbfcf2"/>
<circle cx="260" cy="199" r="3" transform="rotate(180 260 199)" fill="#fbfcf2"/>
<circle cx="242" cy="199" r="3" transform="rotate(180 242 199)" fill="#fbfcf2"/>
<circle cx="224" cy="199" r="3" transform="rotate(180 224 199)" fill="#fbfcf2"/>
<circle cx="206" cy="199" r="3" transform="rotate(180 206 199)" fill="#fbfcf2"/>
<circle cx="188" cy="199" r="3" transform="rotate(180 188 199)" fill="#fbfcf2"/>
<circle cx="170" cy="199" r="3" transform="rotate(180 170 199)" fill="#fbfcf2"/>
<circle cx="152" cy="199" r="3" transform="rotate(180 152 199)" fill="#fbfcf2"/>
<circle cx="134" cy="199" r="3" transform="rotate(180 134 199)" fill="#fbfcf2"/>
<circle cx="116" cy="199" r="3" transform="rotate(180 116 199)" fill="#fbfcf2"/>
<circle cx="98" cy="199" r="3" transform="rotate(180 98 199)" fill="#fbfcf2"/>
<circle cx="80" cy="199" r="3" transform="rotate(180 80 199)" fill="#fbfcf2"/>
<circle cx="62" cy="199" r="3" transform="rotate(180 62 199)" fill="#fbfcf2"/>
<circle cx="44" cy="199" r="3" transform="rotate(180 44 199)" fill="#fbfcf2"/>
<circle cx="26" cy="199" r="3" transform="rotate(180 26 199)" fill="#fbfcf2"/>
<circle cx="8" cy="199" r="3" transform="rotate(180 8 199)" fill="#fbfcf2"/>
<circle cx="368" cy="181" r="3" transform="rotate(180 368 181)" fill="#fbfcf2"/>
<circle cx="350" cy="181" r="3" transform="rotate(180 350 181)" fill="#fbfcf2"/>
<circle cx="332" cy="181" r="3" transform="rotate(180 332 181)" fill="#fbfcf2"/>
<circle cx="314" cy="181" r="3" transform="rotate(180 314 181)" fill="#fbfcf2"/>
<circle cx="296" cy="181" r="3" transform="rotate(180 296 181)" fill="#fbfcf2"/>
<circle cx="278" cy="181" r="3" transform="rotate(180 278 181)" fill="#fbfcf2"/>
<circle cx="260" cy="181" r="3" transform="rotate(180 260 181)" fill="#fbfcf2"/>
<circle cx="242" cy="181" r="3" transform="rotate(180 242 181)" fill="#fbfcf2"/>
<circle cx="224" cy="181" r="3" transform="rotate(180 224 181)" fill="#fbfcf2"/>
<circle cx="206" cy="181" r="3" transform="rotate(180 206 181)" fill="#fbfcf2"/>
<circle cx="188" cy="181" r="3" transform="rotate(180 188 181)" fill="#fbfcf2"/>
<circle cx="170" cy="181" r="3" transform="rotate(180 170 181)" fill="#fbfcf2"/>
<circle cx="152" cy="181" r="3" transform="rotate(180 152 181)" fill="#fbfcf2"/>
<circle cx="134" cy="181" r="3" transform="rotate(180 134 181)" fill="#fbfcf2"/>
<circle cx="116" cy="181" r="3" transform="rotate(180 116 181)" fill="#fbfcf2"/>
<circle cx="98" cy="181" r="3" transform="rotate(180 98 181)" fill="#fbfcf2"/>
<circle cx="80" cy="181" r="3" transform="rotate(180 80 181)" fill="#fbfcf2"/>
<circle cx="62" cy="181" r="3" transform="rotate(180 62 181)" fill="#fbfcf2"/>
<circle cx="44" cy="181" r="3" transform="rotate(180 44 181)" fill="#fbfcf2"/>
<circle cx="26" cy="181" r="3" transform="rotate(180 26 181)" fill="#fbfcf2"/>
<circle cx="8" cy="181" r="3" transform="rotate(180 8 181)" fill="#fbfcf2"/>
<circle cx="368" cy="163" r="3" transform="rotate(180 368 163)" fill="#fbfcf2"/>
<circle cx="350" cy="163" r="3" transform="rotate(180 350 163)" fill="#fbfcf2"/>
<circle cx="332" cy="163" r="3" transform="rotate(180 332 163)" fill="#fbfcf2"/>
<circle cx="314" cy="163" r="3" transform="rotate(180 314 163)" fill="#fbfcf2"/>
<circle cx="296" cy="163" r="3" transform="rotate(180 296 163)" fill="#fbfcf2"/>
<circle cx="278" cy="163" r="3" transform="rotate(180 278 163)" fill="#fbfcf2"/>
<circle cx="260" cy="163" r="3" transform="rotate(180 260 163)" fill="#fbfcf2"/>
<circle cx="242" cy="163" r="3" transform="rotate(180 242 163)" fill="#fbfcf2"/>
<circle cx="224" cy="163" r="3" transform="rotate(180 224 163)" fill="#fbfcf2"/>
<circle cx="206" cy="163" r="3" transform="rotate(180 206 163)" fill="#fbfcf2"/>
<circle cx="188" cy="163" r="3" transform="rotate(180 188 163)" fill="#fbfcf2"/>
<circle cx="170" cy="163" r="3" transform="rotate(180 170 163)" fill="#fbfcf2"/>
<circle cx="152" cy="163" r="3" transform="rotate(180 152 163)" fill="#fbfcf2"/>
<circle cx="134" cy="163" r="3" transform="rotate(180 134 163)" fill="#fbfcf2"/>
<circle cx="116" cy="163" r="3" transform="rotate(180 116 163)" fill="#fbfcf2"/>
<circle cx="98" cy="163" r="3" transform="rotate(180 98 163)" fill="#fbfcf2"/>
<circle cx="80" cy="163" r="3" transform="rotate(180 80 163)" fill="#fbfcf2"/>
<circle cx="62" cy="163" r="3" transform="rotate(180 62 163)" fill="#fbfcf2"/>
<circle cx="44" cy="163" r="3" transform="rotate(180 44 163)" fill="#fbfcf2"/>
<circle cx="26" cy="163" r="3" transform="rotate(180 26 163)" fill="#fbfcf2"/>
<circle cx="8" cy="163" r="3" transform="rotate(180 8 163)" fill="#fbfcf2"/>
<circle cx="368" cy="145" r="3" transform="rotate(180 368 145)" fill="#fbfcf2"/>
<circle cx="350" cy="145" r="3" transform="rotate(180 350 145)" fill="#fbfcf2"/>
<circle cx="332" cy="145" r="3" transform="rotate(180 332 145)" fill="#fbfcf2"/>
<circle cx="314" cy="145" r="3" transform="rotate(180 314 145)" fill="#fbfcf2"/>
<circle cx="296" cy="145" r="3" transform="rotate(180 296 145)" fill="#fbfcf2"/>
<circle cx="278" cy="145" r="3" transform="rotate(180 278 145)" fill="#fbfcf2"/>
<circle cx="260" cy="145" r="3" transform="rotate(180 260 145)" fill="#fbfcf2"/>
<circle cx="242" cy="145" r="3" transform="rotate(180 242 145)" fill="#fbfcf2"/>
<circle cx="224" cy="145" r="3" transform="rotate(180 224 145)" fill="#fbfcf2"/>
<circle cx="206" cy="145" r="3" transform="rotate(180 206 145)" fill="#fbfcf2"/>
<circle cx="188" cy="145" r="3" transform="rotate(180 188 145)" fill="#fbfcf2"/>
<circle cx="170" cy="145" r="3" transform="rotate(180 170 145)" fill="#fbfcf2"/>
<circle cx="152" cy="145" r="3" transform="rotate(180 152 145)" fill="#fbfcf2"/>
<circle cx="134" cy="145" r="3" transform="rotate(180 134 145)" fill="#fbfcf2"/>
<circle cx="116" cy="145" r="3" transform="rotate(180 116 145)" fill="#fbfcf2"/>
<circle cx="98" cy="145" r="3" transform="rotate(180 98 145)" fill="#fbfcf2"/>
<circle cx="80" cy="145" r="3" transform="rotate(180 80 145)" fill="#fbfcf2"/>
<circle cx="62" cy="145" r="3" transform="rotate(180 62 145)" fill="#fbfcf2"/>
<circle cx="44" cy="145" r="3" transform="rotate(180 44 145)" fill="#fbfcf2"/>
<circle cx="26" cy="145" r="3" transform="rotate(180 26 145)" fill="#fbfcf2"/>
<circle cx="8" cy="145" r="3" transform="rotate(180 8 145)" fill="#fbfcf2"/>
<circle cx="368" cy="127" r="3" transform="rotate(180 368 127)" fill="#fbfcf2"/>
<circle cx="350" cy="127" r="3" transform="rotate(180 350 127)" fill="#fbfcf2"/>
<circle cx="332" cy="127" r="3" transform="rotate(180 332 127)" fill="#fbfcf2"/>
<circle cx="314" cy="127" r="3" transform="rotate(180 314 127)" fill="#fbfcf2"/>
<circle cx="296" cy="127" r="3" transform="rotate(180 296 127)" fill="#fbfcf2"/>
<circle cx="278" cy="127" r="3" transform="rotate(180 278 127)" fill="#fbfcf2"/>
<circle cx="260" cy="127" r="3" transform="rotate(180 260 127)" fill="#fbfcf2"/>
<circle cx="242" cy="127" r="3" transform="rotate(180 242 127)" fill="#fbfcf2"/>
<circle cx="224" cy="127" r="3" transform="rotate(180 224 127)" fill="#fbfcf2"/>
<circle cx="206" cy="127" r="3" transform="rotate(180 206 127)" fill="#fbfcf2"/>
<circle cx="188" cy="127" r="3" transform="rotate(180 188 127)" fill="#fbfcf2"/>
<circle cx="170" cy="127" r="3" transform="rotate(180 170 127)" fill="#fbfcf2"/>
<circle cx="152" cy="127" r="3" transform="rotate(180 152 127)" fill="#fbfcf2"/>
<circle cx="134" cy="127" r="3" transform="rotate(180 134 127)" fill="#fbfcf2"/>
<circle cx="116" cy="127" r="3" transform="rotate(180 116 127)" fill="#fbfcf2"/>
<circle cx="98" cy="127" r="3" transform="rotate(180 98 127)" fill="#fbfcf2"/>
<circle cx="80" cy="127" r="3" transform="rotate(180 80 127)" fill="#fbfcf2"/>
<circle cx="62" cy="127" r="3" transform="rotate(180 62 127)" fill="#fbfcf2"/>
<circle cx="44" cy="127" r="3" transform="rotate(180 44 127)" fill="#fbfcf2"/>
<circle cx="26" cy="127" r="3" transform="rotate(180 26 127)" fill="#fbfcf2"/>
<circle cx="8" cy="127" r="3" transform="rotate(180 8 127)" fill="#fbfcf2"/>
<circle cx="368" cy="109" r="3" transform="rotate(180 368 109)" fill="#fbfcf2"/>
<circle cx="350" cy="109" r="3" transform="rotate(180 350 109)" fill="#fbfcf2"/>
<circle cx="332" cy="109" r="3" transform="rotate(180 332 109)" fill="#fbfcf2"/>
<circle cx="314" cy="109" r="3" transform="rotate(180 314 109)" fill="#fbfcf2"/>
<circle cx="296" cy="109" r="3" transform="rotate(180 296 109)" fill="#fbfcf2"/>
<circle cx="278" cy="109" r="3" transform="rotate(180 278 109)" fill="#fbfcf2"/>
<circle cx="260" cy="109" r="3" transform="rotate(180 260 109)" fill="#fbfcf2"/>
<circle cx="242" cy="109" r="3" transform="rotate(180 242 109)" fill="#fbfcf2"/>
<circle cx="224" cy="109" r="3" transform="rotate(180 224 109)" fill="#fbfcf2"/>
<circle cx="206" cy="109" r="3" transform="rotate(180 206 109)" fill="#fbfcf2"/>
<circle cx="188" cy="109" r="3" transform="rotate(180 188 109)" fill="#fbfcf2"/>
<circle cx="170" cy="109" r="3" transform="rotate(180 170 109)" fill="#fbfcf2"/>
<circle cx="152" cy="109" r="3" transform="rotate(180 152 109)" fill="#fbfcf2"/>
<circle cx="134" cy="109" r="3" transform="rotate(180 134 109)" fill="#fbfcf2"/>
<circle cx="116" cy="109" r="3" transform="rotate(180 116 109)" fill="#fbfcf2"/>
<circle cx="98" cy="109" r="3" transform="rotate(180 98 109)" fill="#fbfcf2"/>
<circle cx="80" cy="109" r="3" transform="rotate(180 80 109)" fill="#fbfcf2"/>
<circle cx="62" cy="109" r="3" transform="rotate(180 62 109)" fill="#fbfcf2"/>
<circle cx="44" cy="109" r="3" transform="rotate(180 44 109)" fill="#fbfcf2"/>
<circle cx="26" cy="109" r="3" transform="rotate(180 26 109)" fill="#fbfcf2"/>
<circle cx="8" cy="109" r="3" transform="rotate(180 8 109)" fill="#fbfcf2"/>
<circle cx="368" cy="91" r="3" transform="rotate(180 368 91)" fill="#fbfcf2"/>
<circle cx="350" cy="91" r="3" transform="rotate(180 350 91)" fill="#fbfcf2"/>
<circle cx="332" cy="91" r="3" transform="rotate(180 332 91)" fill="#fbfcf2"/>
<circle cx="314" cy="91" r="3" transform="rotate(180 314 91)" fill="#fbfcf2"/>
<circle cx="296" cy="91" r="3" transform="rotate(180 296 91)" fill="#fbfcf2"/>
<circle cx="278" cy="91" r="3" transform="rotate(180 278 91)" fill="#fbfcf2"/>
<circle cx="260" cy="91" r="3" transform="rotate(180 260 91)" fill="#fbfcf2"/>
<circle cx="242" cy="91" r="3" transform="rotate(180 242 91)" fill="#fbfcf2"/>
<circle cx="224" cy="91" r="3" transform="rotate(180 224 91)" fill="#fbfcf2"/>
<circle cx="206" cy="91" r="3" transform="rotate(180 206 91)" fill="#fbfcf2"/>
<circle cx="188" cy="91" r="3" transform="rotate(180 188 91)" fill="#fbfcf2"/>
<circle cx="170" cy="91" r="3" transform="rotate(180 170 91)" fill="#fbfcf2"/>
<circle cx="152" cy="91" r="3" transform="rotate(180 152 91)" fill="#fbfcf2"/>
<circle cx="134" cy="91" r="3" transform="rotate(180 134 91)" fill="#fbfcf2"/>
<circle cx="116" cy="91" r="3" transform="rotate(180 116 91)" fill="#fbfcf2"/>
<circle cx="98" cy="91" r="3" transform="rotate(180 98 91)" fill="#fbfcf2"/>
<circle cx="80" cy="91" r="3" transform="rotate(180 80 91)" fill="#fbfcf2"/>
<circle cx="62" cy="91" r="3" transform="rotate(180 62 91)" fill="#fbfcf2"/>
<circle cx="44" cy="91" r="3" transform="rotate(180 44 91)" fill="#fbfcf2"/>
<circle cx="26" cy="91" r="3" transform="rotate(180 26 91)" fill="#fbfcf2"/>
<circle cx="8" cy="91" r="3" transform="rotate(180 8 91)" fill="#fbfcf2"/>
<circle cx="368" cy="73" r="3" transform="rotate(180 368 73)" fill="#fbfcf2"/>
<circle cx="350" cy="73" r="3" transform="rotate(180 350 73)" fill="#fbfcf2"/>
<circle cx="332" cy="73" r="3" transform="rotate(180 332 73)" fill="#fbfcf2"/>
<circle cx="314" cy="73" r="3" transform="rotate(180 314 73)" fill="#fbfcf2"/>
<circle cx="296" cy="73" r="3" transform="rotate(180 296 73)" fill="#fbfcf2"/>
<circle cx="278" cy="73" r="3" transform="rotate(180 278 73)" fill="#fbfcf2"/>
<circle cx="260" cy="73" r="3" transform="rotate(180 260 73)" fill="#fbfcf2"/>
<circle cx="242" cy="73" r="3" transform="rotate(180 242 73)" fill="#fbfcf2"/>
<circle cx="224" cy="73" r="3" transform="rotate(180 224 73)" fill="#fbfcf2"/>
<circle cx="206" cy="73" r="3" transform="rotate(180 206 73)" fill="#fbfcf2"/>
<circle cx="188" cy="73" r="3" transform="rotate(180 188 73)" fill="#fbfcf2"/>
<circle cx="170" cy="73" r="3" transform="rotate(180 170 73)" fill="#fbfcf2"/>
<circle cx="152" cy="73" r="3" transform="rotate(180 152 73)" fill="#fbfcf2"/>
<circle cx="134" cy="73" r="3" transform="rotate(180 134 73)" fill="#fbfcf2"/>
<circle cx="116" cy="73" r="3" transform="rotate(180 116 73)" fill="#fbfcf2"/>
<circle cx="98" cy="73" r="3" transform="rotate(180 98 73)" fill="#fbfcf2"/>
<circle cx="80" cy="73" r="3" transform="rotate(180 80 73)" fill="#fbfcf2"/>
<circle cx="62" cy="73" r="3" transform="rotate(180 62 73)" fill="#fbfcf2"/>
<circle cx="44" cy="73" r="3" transform="rotate(180 44 73)" fill="#fbfcf2"/>
<circle cx="26" cy="73" r="3" transform="rotate(180 26 73)" fill="#fbfcf2"/>
<circle cx="8" cy="73" r="3" transform="rotate(180 8 73)" fill="#fbfcf2"/>
<circle cx="368" cy="55" r="3" transform="rotate(180 368 55)" fill="#fbfcf2"/>
<circle cx="350" cy="55" r="3" transform="rotate(180 350 55)" fill="#fbfcf2"/>
<circle cx="332" cy="55" r="3" transform="rotate(180 332 55)" fill="#fbfcf2"/>
<circle cx="314" cy="55" r="3" transform="rotate(180 314 55)" fill="#fbfcf2"/>
<circle cx="296" cy="55" r="3" transform="rotate(180 296 55)" fill="#fbfcf2"/>
<circle cx="278" cy="55" r="3" transform="rotate(180 278 55)" fill="#fbfcf2"/>
<circle cx="260" cy="55" r="3" transform="rotate(180 260 55)" fill="#fbfcf2"/>
<circle cx="242" cy="55" r="3" transform="rotate(180 242 55)" fill="#fbfcf2"/>
<circle cx="224" cy="55" r="3" transform="rotate(180 224 55)" fill="#fbfcf2"/>
<circle cx="206" cy="55" r="3" transform="rotate(180 206 55)" fill="#fbfcf2"/>
<circle cx="188" cy="55" r="3" transform="rotate(180 188 55)" fill="#fbfcf2"/>
<circle cx="170" cy="55" r="3" transform="rotate(180 170 55)" fill="#fbfcf2"/>
<circle cx="152" cy="55" r="3" transform="rotate(180 152 55)" fill="#fbfcf2"/>
<circle cx="134" cy="55" r="3" transform="rotate(180 134 55)" fill="#fbfcf2"/>
<circle cx="116" cy="55" r="3" transform="rotate(180 116 55)" fill="#fbfcf2"/>
<circle cx="98" cy="55" r="3" transform="rotate(180 98 55)" fill="#fbfcf2"/>
<circle cx="80" cy="55" r="3" transform="rotate(180 80 55)" fill="#fbfcf2"/>
<circle cx="62" cy="55" r="3" transform="rotate(180 62 55)" fill="#fbfcf2"/>
<circle cx="44" cy="55" r="3" transform="rotate(180 44 55)" fill="#fbfcf2"/>
<circle cx="26" cy="55" r="3" transform="rotate(180 26 55)" fill="#fbfcf2"/>
<circle cx="8" cy="55" r="3" transform="rotate(180 8 55)" fill="#fbfcf2"/>
<circle cx="368" cy="37" r="3" transform="rotate(180 368 37)" fill="#fbfcf2"/>
<circle cx="350" cy="37" r="3" transform="rotate(180 350 37)" fill="#fbfcf2"/>
<circle cx="332" cy="37" r="3" transform="rotate(180 332 37)" fill="#fbfcf2"/>
<circle cx="314" cy="37" r="3" transform="rotate(180 314 37)" fill="#fbfcf2"/>
<circle cx="296" cy="37" r="3" transform="rotate(180 296 37)" fill="#fbfcf2"/>
<circle cx="278" cy="37" r="3" transform="rotate(180 278 37)" fill="#fbfcf2"/>
<circle cx="260" cy="37" r="3" transform="rotate(180 260 37)" fill="#fbfcf2"/>
<circle cx="242" cy="37" r="3" transform="rotate(180 242 37)" fill="#fbfcf2"/>
<circle cx="224" cy="37" r="3" transform="rotate(180 224 37)" fill="#fbfcf2"/>
<circle cx="206" cy="37" r="3" transform="rotate(180 206 37)" fill="#fbfcf2"/>
<circle cx="188" cy="37" r="3" transform="rotate(180 188 37)" fill="#fbfcf2"/>
<circle cx="170" cy="37" r="3" transform="rotate(180 170 37)" fill="#fbfcf2"/>
<circle cx="152" cy="37" r="3" transform="rotate(180 152 37)" fill="#fbfcf2"/>
<circle cx="134" cy="37" r="3" transform="rotate(180 134 37)" fill="#fbfcf2"/>
<circle cx="116" cy="37" r="3" transform="rotate(180 116 37)" fill="#fbfcf2"/>
<circle cx="98" cy="37" r="3" transform="rotate(180 98 37)" fill="#fbfcf2"/>
<circle cx="80" cy="37" r="3" transform="rotate(180 80 37)" fill="#fbfcf2"/>
<circle cx="62" cy="37" r="3" transform="rotate(180 62 37)" fill="#fbfcf2"/>
<circle cx="44" cy="37" r="3" transform="rotate(180 44 37)" fill="#fbfcf2"/>
<circle cx="26" cy="37" r="3" transform="rotate(180 26 37)" fill="#fbfcf2"/>
<circle cx="8" cy="37" r="3" transform="rotate(180 8 37)" fill="#fbfcf2"/>
<circle cx="368" cy="19" r="3" transform="rotate(180 368 19)" fill="#fbfcf2"/>
<circle cx="350" cy="19" r="3" transform="rotate(180 350 19)" fill="#fbfcf2"/>
<circle cx="332" cy="19" r="3" transform="rotate(180 332 19)" fill="#fbfcf2"/>
<circle cx="314" cy="19" r="3" transform="rotate(180 314 19)" fill="#fbfcf2"/>
<circle cx="296" cy="19" r="3" transform="rotate(180 296 19)" fill="#fbfcf2"/>
<circle cx="278" cy="19" r="3" transform="rotate(180 278 19)" fill="#fbfcf2"/>
<circle cx="260" cy="19" r="3" transform="rotate(180 260 19)" fill="#fbfcf2"/>
<circle cx="242" cy="19" r="3" transform="rotate(180 242 19)" fill="#fbfcf2"/>
<circle cx="224" cy="19" r="3" transform="rotate(180 224 19)" fill="#fbfcf2"/>
<circle cx="206" cy="19" r="3" transform="rotate(180 206 19)" fill="#fbfcf2"/>
<circle cx="188" cy="19" r="3" transform="rotate(180 188 19)" fill="#fbfcf2"/>
<circle cx="170" cy="19" r="3" transform="rotate(180 170 19)" fill="#fbfcf2"/>
<circle cx="152" cy="19" r="3" transform="rotate(180 152 19)" fill="#fbfcf2"/>
<circle cx="134" cy="19" r="3" transform="rotate(180 134 19)" fill="#fbfcf2"/>
<circle cx="116" cy="19" r="3" transform="rotate(180 116 19)" fill="#fbfcf2"/>
<circle cx="98" cy="19" r="3" transform="rotate(180 98 19)" fill="#fbfcf2"/>
<circle cx="80" cy="19" r="3" transform="rotate(180 80 19)" fill="#fbfcf2"/>
<circle cx="62" cy="19" r="3" transform="rotate(180 62 19)" fill="#fbfcf2"/>
<circle cx="44" cy="19" r="3" transform="rotate(180 44 19)" fill="#fbfcf2"/>
<circle cx="26" cy="19" r="3" transform="rotate(180 26 19)" fill="#fbfcf2"/>
<circle cx="8" cy="19" r="3" transform="rotate(180 8 19)" fill="#fbfcf2"/>
</g>
<path d="M372 400H-13V14H372V400Z" fill="url(#paint0_linear_780_4879)"/>
<defs>
<linearGradient id="paint0_linear_780_4879" x1="220" y1="180" x2="-120" y2="-133" gradientUnits="userSpaceOnUse">
<stop offset="0.0001" stop-color="#888" stop-opacity=".85"/>
<stop offset="0.4" stop-color="#252525" stop-opacity="0"/>
</linearGradient>
</defs>
</svg>
