<svg width="1218" height="90" viewBox="0 0 1218 90" fill="none" xmlns="http://www.w3.org/2000/svg">
<path d="M263 72C263 72 267.601 1.5 305.375 1.5C343.149 1.5 532.25 1.5 532.25 1.5" stroke="url(#paint0_linear_62_271)" stroke-width="1.5"/>
<path d="M554.75 71.25C554.75 71.25 559.748 1.5 600.784 1.5C641.82 1.5 847.25 1.5 847.25 1.5" stroke="url(#paint1_linear_62_271)" stroke-width="1.5"/>
<path d="M878 72C878 72 882.601 1.5 920.375 1.5C958.149 1.5 1147.25 1.5 1147.25 1.5" stroke="url(#paint2_linear_62_271)" stroke-width="1.5"/>
<path d="M337.158 27.864H348.99V30.456H340.158V34.944H347.91V37.392H340.158V45H337.158V27.864ZM355.968 45.336C354.976 45.336 354.088 45.176 353.304 44.856C352.536 44.52 351.88 44.064 351.336 43.488C350.808 42.912 350.4 42.224 350.112 41.424C349.84 40.624 349.704 39.744 349.704 38.784C349.704 37.84 349.84 36.968 350.112 36.168C350.4 35.368 350.808 34.68 351.336 34.104C351.88 33.528 352.536 33.08 353.304 32.76C354.088 32.424 354.976 32.256 355.968 32.256C356.96 32.256 357.84 32.424 358.608 32.76C359.392 33.08 360.048 33.528 360.576 34.104C361.12 34.68 361.528 35.368 361.8 36.168C362.088 36.968 362.232 37.84 362.232 38.784C362.232 39.744 362.088 40.624 361.8 41.424C361.528 42.224 361.12 42.912 360.576 43.488C360.048 44.064 359.392 44.52 358.608 44.856C357.84 45.176 356.96 45.336 355.968 45.336ZM355.968 43.176C356.576 43.176 357.104 43.048 357.552 42.792C358 42.536 358.368 42.2 358.656 41.784C358.944 41.368 359.152 40.904 359.28 40.392C359.424 39.864 359.496 39.328 359.496 38.784C359.496 38.256 359.424 37.728 359.28 37.2C359.152 36.672 358.944 36.208 358.656 35.808C358.368 35.392 358 35.056 357.552 34.8C357.104 34.544 356.576 34.416 355.968 34.416C355.36 34.416 354.832 34.544 354.384 34.8C353.936 35.056 353.568 35.392 353.28 35.808C352.992 36.208 352.776 36.672 352.632 37.2C352.504 37.728 352.44 38.256 352.44 38.784C352.44 39.328 352.504 39.864 352.632 40.392C352.776 40.904 352.992 41.368 353.28 41.784C353.568 42.2 353.936 42.536 354.384 42.792C354.832 43.048 355.36 43.176 355.968 43.176ZM374.683 45H371.995V43.272H371.947C371.611 43.896 371.107 44.4 370.435 44.784C369.779 45.152 369.107 45.336 368.419 45.336C366.787 45.336 365.603 44.936 364.867 44.136C364.147 43.32 363.787 42.096 363.787 40.464V32.592H366.523V40.2C366.523 41.288 366.731 42.056 367.147 42.504C367.563 42.952 368.147 43.176 368.899 43.176C369.475 43.176 369.955 43.088 370.339 42.912C370.723 42.736 371.035 42.504 371.275 42.216C371.515 41.912 371.683 41.552 371.779 41.136C371.891 40.72 371.947 40.272 371.947 39.792V32.592H374.683V45ZM376.848 32.592H379.44V34.416L379.488 34.464C379.904 33.776 380.448 33.24 381.12 32.856C381.792 32.456 382.536 32.256 383.352 32.256C384.712 32.256 385.784 32.608 386.568 33.312C387.352 34.016 387.744 35.072 387.744 36.48V45H385.008V37.2C384.976 36.224 384.768 35.52 384.384 35.088C384 34.64 383.4 34.416 382.584 34.416C382.12 34.416 381.704 34.504 381.336 34.68C380.968 34.84 380.656 35.072 380.4 35.376C380.144 35.664 379.944 36.008 379.8 36.408C379.656 36.808 379.584 37.232 379.584 37.68V45H376.848V32.592ZM401.597 45H399.005V43.32H398.957C398.589 44.04 398.053 44.56 397.349 44.88C396.645 45.184 395.901 45.336 395.117 45.336C394.141 45.336 393.285 45.168 392.549 44.832C391.829 44.48 391.229 44.008 390.749 43.416C390.269 42.824 389.909 42.128 389.669 41.328C389.429 40.512 389.309 39.64 389.309 38.712C389.309 37.592 389.461 36.624 389.765 35.808C390.069 34.992 390.469 34.32 390.965 33.792C391.477 33.264 392.053 32.88 392.693 32.64C393.349 32.384 394.013 32.256 394.685 32.256C395.069 32.256 395.461 32.296 395.861 32.376C396.261 32.44 396.645 32.552 397.013 32.712C397.381 32.872 397.717 33.08 398.021 33.336C398.341 33.576 398.605 33.864 398.813 34.2H398.861V27.864H401.597V45ZM392.045 38.928C392.045 39.456 392.109 39.976 392.237 40.488C392.381 41 392.589 41.456 392.861 41.856C393.149 42.256 393.509 42.576 393.941 42.816C394.373 43.056 394.885 43.176 395.477 43.176C396.085 43.176 396.605 43.048 397.037 42.792C397.485 42.536 397.845 42.2 398.117 41.784C398.405 41.368 398.613 40.904 398.741 40.392C398.885 39.864 398.957 39.328 398.957 38.784C398.957 37.408 398.645 36.336 398.021 35.568C397.413 34.8 396.581 34.416 395.525 34.416C394.885 34.416 394.341 34.552 393.893 34.824C393.461 35.08 393.101 35.424 392.813 35.856C392.541 36.272 392.341 36.752 392.213 37.296C392.101 37.824 392.045 38.368 392.045 38.928ZM414.253 42.24C414.253 42.576 414.293 42.816 414.373 42.96C414.469 43.104 414.645 43.176 414.901 43.176C414.981 43.176 415.077 43.176 415.189 43.176C415.301 43.176 415.429 43.16 415.573 43.128V45.024C415.477 45.056 415.349 45.088 415.189 45.12C415.045 45.168 414.893 45.208 414.733 45.24C414.573 45.272 414.413 45.296 414.253 45.312C414.093 45.328 413.957 45.336 413.845 45.336C413.285 45.336 412.821 45.224 412.453 45C412.085 44.776 411.845 44.384 411.733 43.824C411.189 44.352 410.517 44.736 409.717 44.976C408.933 45.216 408.173 45.336 407.437 45.336C406.877 45.336 406.341 45.256 405.829 45.096C405.317 44.952 404.861 44.736 404.461 44.448C404.077 44.144 403.765 43.768 403.525 43.32C403.301 42.856 403.189 42.32 403.189 41.712C403.189 40.944 403.325 40.32 403.597 39.84C403.885 39.36 404.253 38.984 404.701 38.712C405.165 38.44 405.677 38.248 406.237 38.136C406.813 38.008 407.389 37.912 407.965 37.848C408.461 37.752 408.933 37.688 409.381 37.656C409.829 37.608 410.221 37.536 410.557 37.44C410.909 37.344 411.181 37.2 411.373 37.008C411.581 36.8 411.685 36.496 411.685 36.096C411.685 35.744 411.597 35.456 411.421 35.232C411.261 35.008 411.053 34.84 410.797 34.728C410.557 34.6 410.285 34.52 409.981 34.488C409.677 34.44 409.389 34.416 409.117 34.416C408.349 34.416 407.717 34.576 407.221 34.896C406.725 35.216 406.445 35.712 406.381 36.384H403.645C403.693 35.584 403.885 34.92 404.221 34.392C404.557 33.864 404.981 33.44 405.493 33.12C406.021 32.8 406.613 32.576 407.269 32.448C407.925 32.32 408.597 32.256 409.285 32.256C409.893 32.256 410.493 32.32 411.085 32.448C411.677 32.576 412.205 32.784 412.669 33.072C413.149 33.36 413.533 33.736 413.821 34.2C414.109 34.648 414.253 35.2 414.253 35.856V42.24ZM411.517 38.784C411.101 39.056 410.589 39.224 409.981 39.288C409.373 39.336 408.765 39.416 408.157 39.528C407.869 39.576 407.589 39.648 407.317 39.744C407.045 39.824 406.805 39.944 406.597 40.104C406.389 40.248 406.221 40.448 406.093 40.704C405.981 40.944 405.925 41.24 405.925 41.592C405.925 41.896 406.013 42.152 406.189 42.36C406.365 42.568 406.573 42.736 406.813 42.864C407.069 42.976 407.341 43.056 407.629 43.104C407.933 43.152 408.205 43.176 408.445 43.176C408.749 43.176 409.077 43.136 409.429 43.056C409.781 42.976 410.109 42.84 410.413 42.648C410.733 42.456 410.997 42.216 411.205 41.928C411.413 41.624 411.517 41.256 411.517 40.824V38.784ZM415.229 32.592H417.293V28.872H420.029V32.592H422.501V34.632H420.029V41.256C420.029 41.544 420.037 41.792 420.053 42C420.085 42.208 420.141 42.384 420.221 42.528C420.317 42.672 420.453 42.784 420.629 42.864C420.805 42.928 421.045 42.96 421.349 42.96C421.541 42.96 421.733 42.96 421.925 42.96C422.117 42.944 422.309 42.912 422.501 42.864V44.976C422.197 45.008 421.901 45.04 421.613 45.072C421.325 45.104 421.029 45.12 420.725 45.12C420.005 45.12 419.421 45.056 418.973 44.928C418.541 44.784 418.197 44.584 417.941 44.328C417.701 44.056 417.533 43.72 417.437 43.32C417.357 42.92 417.309 42.464 417.293 41.952V34.632H415.229V32.592ZM423.821 27.864H426.557V30.456H423.821V27.864ZM423.821 32.592H426.557V45H423.821V32.592ZM434.506 45.336C433.514 45.336 432.626 45.176 431.842 44.856C431.074 44.52 430.418 44.064 429.874 43.488C429.346 42.912 428.938 42.224 428.65 41.424C428.378 40.624 428.242 39.744 428.242 38.784C428.242 37.84 428.378 36.968 428.65 36.168C428.938 35.368 429.346 34.68 429.874 34.104C430.418 33.528 431.074 33.08 431.842 32.76C432.626 32.424 433.514 32.256 434.506 32.256C435.498 32.256 436.378 32.424 437.146 32.76C437.93 33.08 438.586 33.528 439.114 34.104C439.658 34.68 440.066 35.368 440.338 36.168C440.626 36.968 440.77 37.84 440.77 38.784C440.77 39.744 440.626 40.624 440.338 41.424C440.066 42.224 439.658 42.912 439.114 43.488C438.586 44.064 437.93 44.52 437.146 44.856C436.378 45.176 435.498 45.336 434.506 45.336ZM434.506 43.176C435.114 43.176 435.642 43.048 436.09 42.792C436.538 42.536 436.906 42.2 437.194 41.784C437.482 41.368 437.69 40.904 437.818 40.392C437.962 39.864 438.034 39.328 438.034 38.784C438.034 38.256 437.962 37.728 437.818 37.2C437.69 36.672 437.482 36.208 437.194 35.808C436.906 35.392 436.538 35.056 436.09 34.8C435.642 34.544 435.114 34.416 434.506 34.416C433.898 34.416 433.37 34.544 432.922 34.8C432.474 35.056 432.106 35.392 431.818 35.808C431.53 36.208 431.314 36.672 431.17 37.2C431.042 37.728 430.978 38.256 430.978 38.784C430.978 39.328 431.042 39.864 431.17 40.392C431.314 40.904 431.53 41.368 431.818 41.784C432.106 42.2 432.474 42.536 432.922 42.792C433.37 43.048 433.898 43.176 434.506 43.176ZM442.325 32.592H444.917V34.416L444.965 34.464C445.381 33.776 445.925 33.24 446.597 32.856C447.269 32.456 448.013 32.256 448.829 32.256C450.189 32.256 451.261 32.608 452.045 33.312C452.829 34.016 453.221 35.072 453.221 36.48V45H450.485V37.2C450.453 36.224 450.245 35.52 449.861 35.088C449.477 34.64 448.877 34.416 448.061 34.416C447.597 34.416 447.181 34.504 446.813 34.68C446.445 34.84 446.133 35.072 445.877 35.376C445.621 35.664 445.421 36.008 445.277 36.408C445.133 36.808 445.061 37.232 445.061 37.68V45H442.325V32.592Z" fill="#FAF3D6"/>
<path d="M972.847 33.312C972.719 32.816 972.543 32.36 972.319 31.944C972.095 31.528 971.807 31.168 971.455 30.864C971.103 30.56 970.687 30.328 970.207 30.168C969.743 29.992 969.199 29.904 968.575 29.904C967.663 29.904 966.871 30.088 966.199 30.456C965.543 30.824 965.007 31.32 964.591 31.944C964.175 32.552 963.863 33.248 963.655 34.032C963.463 34.816 963.367 35.616 963.367 36.432C963.367 37.248 963.463 38.048 963.655 38.832C963.863 39.616 964.175 40.32 964.591 40.944C965.007 41.552 965.543 42.04 966.199 42.408C966.871 42.776 967.663 42.96 968.575 42.96C969.247 42.96 969.839 42.848 970.351 42.624C970.863 42.384 971.303 42.064 971.671 41.664C972.039 41.248 972.327 40.768 972.535 40.224C972.743 39.68 972.879 39.096 972.943 38.472H975.871C975.807 39.496 975.583 40.432 975.199 41.28C974.831 42.128 974.327 42.864 973.687 43.488C973.047 44.096 972.295 44.568 971.431 44.904C970.567 45.24 969.615 45.408 968.575 45.408C967.295 45.408 966.143 45.176 965.119 44.712C964.111 44.232 963.255 43.584 962.551 42.768C961.847 41.952 961.303 41 960.919 39.912C960.551 38.824 960.367 37.664 960.367 36.432C960.367 35.216 960.551 34.064 960.919 32.976C961.303 31.888 961.847 30.936 962.551 30.12C963.255 29.304 964.111 28.656 965.119 28.176C966.143 27.696 967.295 27.456 968.575 27.456C969.535 27.456 970.439 27.592 971.287 27.864C972.135 28.12 972.879 28.504 973.519 29.016C974.175 29.512 974.703 30.12 975.103 30.84C975.503 31.56 975.751 32.384 975.847 33.312H972.847ZM983.183 45.336C982.191 45.336 981.303 45.176 980.519 44.856C979.751 44.52 979.095 44.064 978.551 43.488C978.023 42.912 977.615 42.224 977.327 41.424C977.055 40.624 976.919 39.744 976.919 38.784C976.919 37.84 977.055 36.968 977.327 36.168C977.615 35.368 978.023 34.68 978.551 34.104C979.095 33.528 979.751 33.08 980.519 32.76C981.303 32.424 982.191 32.256 983.183 32.256C984.175 32.256 985.055 32.424 985.823 32.76C986.607 33.08 987.263 33.528 987.791 34.104C988.335 34.68 988.743 35.368 989.015 36.168C989.303 36.968 989.447 37.84 989.447 38.784C989.447 39.744 989.303 40.624 989.015 41.424C988.743 42.224 988.335 42.912 987.791 43.488C987.263 44.064 986.607 44.52 985.823 44.856C985.055 45.176 984.175 45.336 983.183 45.336ZM983.183 43.176C983.791 43.176 984.319 43.048 984.767 42.792C985.215 42.536 985.583 42.2 985.871 41.784C986.159 41.368 986.367 40.904 986.495 40.392C986.639 39.864 986.711 39.328 986.711 38.784C986.711 38.256 986.639 37.728 986.495 37.2C986.367 36.672 986.159 36.208 985.871 35.808C985.583 35.392 985.215 35.056 984.767 34.8C984.319 34.544 983.791 34.416 983.183 34.416C982.575 34.416 982.047 34.544 981.599 34.8C981.151 35.056 980.783 35.392 980.495 35.808C980.207 36.208 979.991 36.672 979.847 37.2C979.719 37.728 979.655 38.256 979.655 38.784C979.655 39.328 979.719 39.864 979.847 40.392C979.991 40.904 980.207 41.368 980.495 41.784C980.783 42.2 981.151 42.536 981.599 42.792C982.047 43.048 982.575 43.176 983.183 43.176ZM991.002 32.592H993.594V34.416L993.642 34.464C994.058 33.776 994.602 33.24 995.274 32.856C995.946 32.456 996.69 32.256 997.506 32.256C998.866 32.256 999.938 32.608 1000.72 33.312C1001.51 34.016 1001.9 35.072 1001.9 36.48V45H999.162V37.2C999.13 36.224 998.922 35.52 998.538 35.088C998.154 34.64 997.554 34.416 996.738 34.416C996.274 34.416 995.858 34.504 995.49 34.68C995.122 34.84 994.81 35.072 994.554 35.376C994.298 35.664 994.098 36.008 993.954 36.408C993.81 36.808 993.738 37.232 993.738 37.68V45H991.002V32.592ZM1004.06 32.592H1006.65V34.416L1006.7 34.464C1007.12 33.776 1007.66 33.24 1008.33 32.856C1009.01 32.456 1009.75 32.256 1010.57 32.256C1011.93 32.256 1013 32.608 1013.78 33.312C1014.57 34.016 1014.96 35.072 1014.96 36.48V45H1012.22V37.2C1012.19 36.224 1011.98 35.52 1011.6 35.088C1011.21 34.64 1010.61 34.416 1009.8 34.416C1009.33 34.416 1008.92 34.504 1008.55 34.68C1008.18 34.84 1007.87 35.072 1007.61 35.376C1007.36 35.664 1007.16 36.008 1007.01 36.408C1006.87 36.808 1006.8 37.232 1006.8 37.68V45H1004.06V32.592ZM1025.64 37.704C1025.61 37.272 1025.52 36.856 1025.36 36.456C1025.21 36.056 1025 35.712 1024.73 35.424C1024.48 35.12 1024.16 34.88 1023.77 34.704C1023.4 34.512 1022.99 34.416 1022.52 34.416C1022.04 34.416 1021.6 34.504 1021.2 34.68C1020.82 34.84 1020.48 35.072 1020.2 35.376C1019.92 35.664 1019.7 36.008 1019.52 36.408C1019.36 36.808 1019.28 37.24 1019.26 37.704H1025.64ZM1019.26 39.504C1019.26 39.984 1019.32 40.448 1019.45 40.896C1019.6 41.344 1019.8 41.736 1020.08 42.072C1020.35 42.408 1020.69 42.68 1021.11 42.888C1021.52 43.08 1022.02 43.176 1022.6 43.176C1023.4 43.176 1024.04 43.008 1024.52 42.672C1025.01 42.32 1025.38 41.8 1025.62 41.112H1028.21C1028.07 41.784 1027.82 42.384 1027.47 42.912C1027.12 43.44 1026.69 43.888 1026.2 44.256C1025.7 44.608 1025.14 44.872 1024.52 45.048C1023.91 45.24 1023.27 45.336 1022.6 45.336C1021.62 45.336 1020.76 45.176 1020 44.856C1019.25 44.536 1018.61 44.088 1018.08 43.512C1017.57 42.936 1017.18 42.248 1016.91 41.448C1016.65 40.648 1016.52 39.768 1016.52 38.808C1016.52 37.928 1016.66 37.096 1016.93 36.312C1017.22 35.512 1017.62 34.816 1018.13 34.224C1018.66 33.616 1019.29 33.136 1020.03 32.784C1020.76 32.432 1021.6 32.256 1022.52 32.256C1023.5 32.256 1024.37 32.464 1025.14 32.88C1025.92 33.28 1026.57 33.816 1027.08 34.488C1027.6 35.16 1027.96 35.936 1028.19 36.816C1028.43 37.68 1028.49 38.576 1028.38 39.504H1019.26ZM1038.12 36.744C1038 35.976 1037.69 35.4 1037.18 35.016C1036.68 34.616 1036.05 34.416 1035.28 34.416C1034.93 34.416 1034.56 34.48 1034.16 34.608C1033.76 34.72 1033.39 34.944 1033.05 35.28C1032.72 35.6 1032.44 36.056 1032.21 36.648C1031.99 37.224 1031.88 37.984 1031.88 38.928C1031.88 39.44 1031.93 39.952 1032.04 40.464C1032.17 40.976 1032.36 41.432 1032.62 41.832C1032.89 42.232 1033.24 42.56 1033.65 42.816C1034.07 43.056 1034.57 43.176 1035.16 43.176C1035.96 43.176 1036.62 42.928 1037.13 42.432C1037.66 41.936 1037.99 41.24 1038.12 40.344H1040.85C1040.6 41.96 1039.98 43.2 1039 44.064C1038.04 44.912 1036.76 45.336 1035.16 45.336C1034.19 45.336 1033.32 45.176 1032.57 44.856C1031.84 44.52 1031.21 44.072 1030.7 43.512C1030.19 42.936 1029.8 42.256 1029.52 41.472C1029.27 40.688 1029.14 39.84 1029.14 38.928C1029.14 38 1029.27 37.128 1029.52 36.312C1029.78 35.496 1030.16 34.792 1030.68 34.2C1031.19 33.592 1031.82 33.12 1032.57 32.784C1033.34 32.432 1034.24 32.256 1035.26 32.256C1035.98 32.256 1036.66 32.352 1037.3 32.544C1037.96 32.72 1038.53 32.992 1039.03 33.36C1039.54 33.728 1039.96 34.192 1040.28 34.752C1040.6 35.312 1040.79 35.976 1040.85 36.744H1038.12ZM1041.11 32.592H1043.17V28.872H1045.91V32.592H1048.38V34.632H1045.91V41.256C1045.91 41.544 1045.92 41.792 1045.93 42C1045.96 42.208 1046.02 42.384 1046.1 42.528C1046.2 42.672 1046.33 42.784 1046.51 42.864C1046.68 42.928 1046.92 42.96 1047.23 42.96C1047.42 42.96 1047.61 42.96 1047.8 42.96C1048 42.944 1048.19 42.912 1048.38 42.864V44.976C1048.08 45.008 1047.78 45.04 1047.49 45.072C1047.2 45.104 1046.91 45.12 1046.6 45.12C1045.88 45.12 1045.3 45.056 1044.85 44.928C1044.42 44.784 1044.08 44.584 1043.82 44.328C1043.58 44.056 1043.41 43.72 1043.32 43.32C1043.24 42.92 1043.19 42.464 1043.17 41.952V34.632H1041.11V32.592ZM1049.7 27.864H1052.44V30.456H1049.7V27.864ZM1049.7 32.592H1052.44V45H1049.7V32.592ZM1060.39 45.336C1059.39 45.336 1058.51 45.176 1057.72 44.856C1056.95 44.52 1056.3 44.064 1055.75 43.488C1055.23 42.912 1054.82 42.224 1054.53 41.424C1054.26 40.624 1054.12 39.744 1054.12 38.784C1054.12 37.84 1054.26 36.968 1054.53 36.168C1054.82 35.368 1055.23 34.68 1055.75 34.104C1056.3 33.528 1056.95 33.08 1057.72 32.76C1058.51 32.424 1059.39 32.256 1060.39 32.256C1061.38 32.256 1062.26 32.424 1063.03 32.76C1063.81 33.08 1064.47 33.528 1064.99 34.104C1065.54 34.68 1065.95 35.368 1066.22 36.168C1066.51 36.968 1066.65 37.84 1066.65 38.784C1066.65 39.744 1066.51 40.624 1066.22 41.424C1065.95 42.224 1065.54 42.912 1064.99 43.488C1064.47 44.064 1063.81 44.52 1063.03 44.856C1062.26 45.176 1061.38 45.336 1060.39 45.336ZM1060.39 43.176C1060.99 43.176 1061.52 43.048 1061.97 42.792C1062.42 42.536 1062.79 42.2 1063.07 41.784C1063.36 41.368 1063.57 40.904 1063.7 40.392C1063.84 39.864 1063.91 39.328 1063.91 38.784C1063.91 38.256 1063.84 37.728 1063.7 37.2C1063.57 36.672 1063.36 36.208 1063.07 35.808C1062.79 35.392 1062.42 35.056 1061.97 34.8C1061.52 34.544 1060.99 34.416 1060.39 34.416C1059.78 34.416 1059.25 34.544 1058.8 34.8C1058.35 35.056 1057.99 35.392 1057.7 35.808C1057.41 36.208 1057.19 36.672 1057.05 37.2C1056.92 37.728 1056.86 38.256 1056.86 38.784C1056.86 39.328 1056.92 39.864 1057.05 40.392C1057.19 40.904 1057.41 41.368 1057.7 41.784C1057.99 42.2 1058.35 42.536 1058.8 42.792C1059.25 43.048 1059.78 43.176 1060.39 43.176ZM1068.2 32.592H1070.8V34.416L1070.84 34.464C1071.26 33.776 1071.8 33.24 1072.48 32.856C1073.15 32.456 1073.89 32.256 1074.71 32.256C1076.07 32.256 1077.14 32.608 1077.92 33.312C1078.71 34.016 1079.1 35.072 1079.1 36.48V45H1076.36V37.2C1076.33 36.224 1076.12 35.52 1075.74 35.088C1075.36 34.64 1074.76 34.416 1073.94 34.416C1073.48 34.416 1073.06 34.504 1072.69 34.68C1072.32 34.84 1072.01 35.072 1071.76 35.376C1071.5 35.664 1071.3 36.008 1071.16 36.408C1071.01 36.808 1070.94 37.232 1070.94 37.68V45H1068.2V32.592Z" fill="#FAF3D6"/>
<path d="M694.123 45H692.203L691.747 42.984C690.947 43.896 690.147 44.528 689.347 44.88C688.547 45.232 687.627 45.408 686.587 45.408C685.307 45.408 684.155 45.176 683.131 44.712C682.123 44.232 681.267 43.584 680.563 42.768C679.859 41.952 679.315 41 678.931 39.912C678.563 38.824 678.379 37.664 678.379 36.432C678.379 35.216 678.563 34.064 678.931 32.976C679.315 31.888 679.859 30.936 680.563 30.12C681.267 29.304 682.123 28.656 683.131 28.176C684.155 27.696 685.307 27.456 686.587 27.456C687.515 27.456 688.395 27.584 689.227 27.84C690.075 28.08 690.827 28.448 691.483 28.944C692.139 29.424 692.683 30.032 693.115 30.768C693.547 31.504 693.819 32.352 693.931 33.312H691.003C690.923 32.752 690.747 32.264 690.475 31.848C690.219 31.416 689.891 31.056 689.491 30.768C689.091 30.48 688.643 30.264 688.147 30.12C687.651 29.976 687.131 29.904 686.587 29.904C685.675 29.904 684.883 30.088 684.211 30.456C683.555 30.824 683.019 31.32 682.603 31.944C682.187 32.552 681.875 33.248 681.667 34.032C681.475 34.816 681.379 35.616 681.379 36.432C681.379 37.248 681.475 38.048 681.667 38.832C681.875 39.616 682.187 40.32 682.603 40.944C683.019 41.552 683.555 42.04 684.211 42.408C684.883 42.776 685.675 42.96 686.587 42.96C687.355 42.976 688.035 42.88 688.627 42.672C689.219 42.448 689.715 42.136 690.115 41.736C690.531 41.32 690.843 40.816 691.051 40.224C691.259 39.632 691.371 38.976 691.387 38.256H686.827V35.976H694.123V45ZM696.278 32.592H698.846V34.992H698.894C698.974 34.656 699.126 34.328 699.35 34.008C699.59 33.688 699.87 33.4 700.19 33.144C700.526 32.872 700.894 32.656 701.294 32.496C701.694 32.336 702.102 32.256 702.518 32.256C702.838 32.256 703.054 32.264 703.166 32.28C703.294 32.296 703.422 32.312 703.55 32.328V34.968C703.358 34.936 703.158 34.912 702.95 34.896C702.758 34.864 702.566 34.848 702.374 34.848C701.91 34.848 701.47 34.944 701.054 35.136C700.654 35.312 700.302 35.584 699.998 35.952C699.694 36.304 699.454 36.744 699.278 37.272C699.102 37.8 699.014 38.408 699.014 39.096V45H696.278V32.592ZM709.261 45.336C708.269 45.336 707.381 45.176 706.597 44.856C705.829 44.52 705.173 44.064 704.629 43.488C704.101 42.912 703.693 42.224 703.405 41.424C703.133 40.624 702.997 39.744 702.997 38.784C702.997 37.84 703.133 36.968 703.405 36.168C703.693 35.368 704.101 34.68 704.629 34.104C705.173 33.528 705.829 33.08 706.597 32.76C707.381 32.424 708.269 32.256 709.261 32.256C710.253 32.256 711.133 32.424 711.901 32.76C712.685 33.08 713.341 33.528 713.869 34.104C714.413 34.68 714.821 35.368 715.093 36.168C715.381 36.968 715.525 37.84 715.525 38.784C715.525 39.744 715.381 40.624 715.093 41.424C714.821 42.224 714.413 42.912 713.869 43.488C713.341 44.064 712.685 44.52 711.901 44.856C711.133 45.176 710.253 45.336 709.261 45.336ZM709.261 43.176C709.869 43.176 710.397 43.048 710.845 42.792C711.293 42.536 711.661 42.2 711.949 41.784C712.237 41.368 712.445 40.904 712.573 40.392C712.717 39.864 712.789 39.328 712.789 38.784C712.789 38.256 712.717 37.728 712.573 37.2C712.445 36.672 712.237 36.208 711.949 35.808C711.661 35.392 711.293 35.056 710.845 34.8C710.397 34.544 709.869 34.416 709.261 34.416C708.653 34.416 708.125 34.544 707.677 34.8C707.229 35.056 706.861 35.392 706.573 35.808C706.285 36.208 706.069 36.672 705.925 37.2C705.797 37.728 705.733 38.256 705.733 38.784C705.733 39.328 705.797 39.864 705.925 40.392C706.069 40.904 706.285 41.368 706.573 41.784C706.861 42.2 707.229 42.536 707.677 42.792C708.125 43.048 708.653 43.176 709.261 43.176ZM715.952 32.592H718.856L721.28 41.856H721.328L723.656 32.592H726.416L728.648 41.856H728.696L731.216 32.592H734L730.112 45H727.304L725 35.784H724.952L722.672 45H719.792L715.952 32.592ZM733.792 32.592H735.856V28.872H738.592V32.592H741.064V34.632H738.592V41.256C738.592 41.544 738.6 41.792 738.616 42C738.648 42.208 738.704 42.384 738.784 42.528C738.88 42.672 739.016 42.784 739.192 42.864C739.368 42.928 739.608 42.96 739.912 42.96C740.104 42.96 740.296 42.96 740.488 42.96C740.68 42.944 740.872 42.912 741.064 42.864V44.976C740.76 45.008 740.464 45.04 740.176 45.072C739.888 45.104 739.592 45.12 739.288 45.12C738.568 45.12 737.984 45.056 737.536 44.928C737.104 44.784 736.76 44.584 736.504 44.328C736.264 44.056 736.096 43.72 736 43.32C735.92 42.92 735.872 42.464 735.856 41.952V34.632H733.792V32.592ZM742.312 27.864H745.048V34.224H745.096C745.432 33.664 745.928 33.2 746.584 32.832C747.256 32.448 748 32.256 748.816 32.256C750.176 32.256 751.248 32.608 752.032 33.312C752.816 34.016 753.208 35.072 753.208 36.48V45H750.472V37.2C750.44 36.224 750.232 35.52 749.848 35.088C749.464 34.64 748.864 34.416 748.048 34.416C747.584 34.416 747.168 34.504 746.8 34.68C746.432 34.84 746.12 35.072 745.864 35.376C745.608 35.664 745.408 36.008 745.264 36.408C745.12 36.808 745.048 37.232 745.048 37.68V45H742.312V27.864Z" fill="#FAF3D6"/>
<path d="M1136.24 71.79L263 71.2626" stroke="#F87719" stroke-width="1.5" stroke-linecap="square"/>
<path d="M1200.85 88.0791V55.4998" stroke="#F87719" stroke-width="2.25" stroke-linecap="square"/>
<path d="M1200.85 88.0791V55.4998" stroke="#F87719" stroke-width="1.5" stroke-linecap="square"/>
<path d="M1184.63 71.689L1216.88 71.689" stroke="#F87719" stroke-width="1.5" stroke-linecap="square"/>
<path d="M17.4736 87.3291L17.4736 54.7498" stroke="#F87719" stroke-width="2.25" stroke-linecap="square"/>
<path d="M17.4736 87.3291L17.4736 54.7498" stroke="#F87719" stroke-width="1.5" stroke-linecap="square"/>
<path d="M1.24902 70.939L33.5021 70.939" stroke="#F87719" stroke-width="1.5" stroke-linecap="square"/>
<defs>
<linearGradient id="paint0_linear_62_271" x1="263" y1="36.75" x2="532.25" y2="36.75" gradientUnits="userSpaceOnUse">
<stop offset="0.47" stop-color="#F87719"/>
<stop offset="1" stop-color="#92460F" stop-opacity="0"/>
</linearGradient>
<linearGradient id="paint1_linear_62_271" x1="554.75" y1="36.375" x2="847.25" y2="36.375" gradientUnits="userSpaceOnUse">
<stop offset="0.465" stop-color="#F87719"/>
<stop offset="1" stop-color="#92460F" stop-opacity="0"/>
</linearGradient>
<linearGradient id="paint2_linear_62_271" x1="878" y1="36.75" x2="1147.25" y2="36.75" gradientUnits="userSpaceOnUse">
<stop offset="0.47" stop-color="#F87719"/>
<stop offset="1" stop-color="#92460F" stop-opacity="0"/>
</linearGradient>
</defs>
</svg>
