<svg width="68" height="58" viewBox="0 0 68 58" fill="none" xmlns="http://www.w3.org/2000/svg">
<circle cx="25.2314" cy="22.3459" r="13.6259" stroke="#FAF3D6" stroke-width="1.5"/>
<circle cx="25.2314" cy="43.2387" r="13.6259" stroke="#FAF3D6" stroke-width="1.5"/>
<circle cx="14.3759" cy="14.3759" r="13.6259" transform="matrix(-2.0668e-09 1 1 2.0668e-09 0.599609 18.4806)" stroke="#FAF3D6" stroke-width="1.5"/>
<circle cx="14.3759" cy="14.3759" r="13.6259" transform="matrix(-2.0668e-09 1 1 2.0668e-09 21.4512 18.4399)" stroke="#FAF3D6" stroke-width="1.5"/>
<path d="M57.5965 3.8569C57.7258 3.50754 58.2199 3.50754 58.3492 3.8569L59.677 7.44523C59.8696 7.96564 60.2799 8.37596 60.8003 8.56853L64.3886 9.89633C64.738 10.0256 64.738 10.5197 64.3886 10.649L60.8003 11.9768C60.2799 12.1694 59.8696 12.5797 59.677 13.1001L58.3492 16.6884C58.2199 17.0378 57.7258 17.0378 57.5965 16.6884L56.2687 13.1001C56.0762 12.5797 55.6658 12.1694 55.1454 11.9768L51.5571 10.649C51.2077 10.5197 51.2077 10.0256 51.5571 9.89633L55.1454 8.56853C55.6658 8.37596 56.0762 7.96564 56.2687 7.44522L57.5965 3.8569Z" stroke="#FAF3D6" stroke-width="1.5"/>
</svg>
