<svg width="33" height="33" viewBox="0 0 33 33" fill="none" xmlns="http://www.w3.org/2000/svg">
<circle cx="16.2653" cy="16.2653" r="16.2653" fill="#78826A"/>
<g filter="url(#filter0_i_780_3831)">
<path d="M15.1053 31.3222V32.4552H17.3713V31.3222H15.1053ZM17.3713 2.9209C17.3713 2.29514 16.864 1.78787 16.2383 1.78787C15.6125 1.78787 15.1053 2.29514 15.1053 2.9209H17.3713ZM26.4284 13.8249C26.8567 13.3687 26.8342 12.6517 26.3781 12.2233C25.9219 11.795 25.2049 11.8175 24.7765 12.2737L26.4284 13.8249ZM29.3216 16.4165C29.8261 16.0463 29.9349 15.3372 29.5647 14.8327C29.1944 14.3282 28.4854 14.2194 27.9809 14.5896L29.3216 16.4165ZM22.6471 14.4101C22.7067 13.7872 22.25 13.2339 21.627 13.1744C21.0041 13.1149 20.4509 13.5716 20.3913 14.1945L22.6471 14.4101ZM19.2054 19.8614L18.3795 19.0858L19.2054 19.8614ZM24.7778 20.9255C25.3654 21.1404 26.0161 20.8382 26.231 20.2505C26.4459 19.6629 26.1437 19.0122 25.556 18.7973L24.7778 20.9255ZM16.2383 16.0774H15.1053H16.2383ZM22.0435 7.11642C22.126 6.49612 21.69 5.9264 21.0697 5.8439C20.4495 5.76139 19.8797 6.19736 19.7972 6.81765L22.0435 7.11642ZM25.6903 9.56428C26.2453 9.27521 26.4609 8.59097 26.1718 8.03599C25.8827 7.481 25.1985 7.26543 24.6435 7.55449L25.6903 9.56428ZM17.3713 31.3222V23.0211H15.1053V31.3222H17.3713ZM22.9985 17.4773L26.4284 13.8249L24.7765 12.2737L21.3466 15.9261L22.9985 17.4773ZM22.7697 17.6646C23.4118 17.2664 24.2718 17.2354 25.5242 17.2354C26.0933 17.2354 26.7535 17.2375 27.3794 17.1495C28.0162 17.06 28.7074 16.8672 29.3216 16.4165L27.9809 14.5896C27.7784 14.7382 27.4931 14.8452 27.064 14.9055C26.624 14.9673 26.129 14.9694 25.5242 14.9694C24.4287 14.9694 22.866 14.9384 21.5754 15.7389L22.7697 17.6646ZM22.8111 15.7658C22.379 15.471 22.5912 15.6117 22.6314 15.7078C22.6392 15.7264 22.6106 15.6685 22.6005 15.4446C22.5907 15.2245 22.6005 14.8976 22.6471 14.4101L20.3913 14.1945C20.2944 15.2088 20.293 15.9891 20.5405 16.5813C20.832 17.2792 21.469 17.5933 21.534 17.6377L22.8111 15.7658ZM17.0642 23.7967L20.0314 20.637L18.3795 19.0858L15.4123 22.2454L17.0642 23.7967ZM20.0314 20.637L22.9985 17.4773L21.3466 15.9261L18.3795 19.0858L20.0314 20.637ZM19.8912 20.7633C19.9564 20.7137 20.1964 20.6058 20.7181 20.5504C21.2002 20.4992 21.7793 20.5067 22.3733 20.552C22.9618 20.5969 23.533 20.6763 23.9877 20.7563C24.2146 20.7962 24.4072 20.8353 24.5538 20.8687C24.7163 20.9058 24.7812 20.9268 24.7778 20.9255L25.556 18.7973C25.314 18.7088 24.8617 18.6091 24.38 18.5244C23.865 18.4339 23.2195 18.3439 22.5457 18.2925C21.8774 18.2415 21.1486 18.2259 20.4788 18.297C19.8486 18.3639 19.0928 18.5237 18.5196 18.9595L19.8912 20.7633ZM17.3713 23.0211V16.0774H15.1053L15.1053 23.0211H17.3713ZM17.3713 16.0774V2.9209H15.1053L15.1053 16.0774H17.3713ZM17.105 16.8072L21.787 11.247L20.0537 9.78738L15.3716 15.3476L17.105 16.8072ZM22.0459 10.3873C21.9201 9.29693 21.8844 8.31235 22.0435 7.11642L19.7972 6.81765C19.607 8.24821 19.6541 9.42806 19.7948 10.6471L22.0459 10.3873ZM21.2011 11.6149C22.6351 11.2481 24.0773 10.4044 25.6903 9.56428L24.6435 7.55449C22.847 8.49021 21.7436 9.13709 20.6396 9.4195L21.2011 11.6149Z" fill="#FAF3D6"/>
<path d="M17.3713 30.2047V31.3377H15.1053V30.2047H17.3713ZM15.1053 2.9209C15.1053 2.29514 15.6125 1.78787 16.2383 1.78787C16.864 1.78787 17.3713 2.29514 17.3713 2.9209H15.1053ZM6.04818 13.8249C5.61982 13.3687 5.64235 12.6517 6.09851 12.2233C6.55466 11.795 7.2717 11.8175 7.70006 12.2737L6.04818 13.8249ZM3.15495 16.4165C2.65048 16.0463 2.54165 15.3372 2.91189 14.8327C3.28212 14.3282 3.99121 14.2194 4.49569 14.5896L3.15495 16.4165ZM9.82944 14.4101C9.7699 13.7872 10.2266 13.2339 10.8495 13.1744C11.4724 13.1149 12.0257 13.5716 12.0852 14.1945L9.82944 14.4101ZM7.69881 20.9255C7.11112 21.1404 6.46048 20.8382 6.24556 20.2505C6.03064 19.6629 6.33283 19.0122 6.92051 18.7973L7.69881 20.9255ZM16.2383 16.0774H17.3713H16.2383ZM10.4331 7.11642C10.3506 6.49612 10.7865 5.9264 11.4068 5.8439C12.0271 5.76139 12.5968 6.19736 12.6793 6.81765L10.4331 7.11642ZM6.78626 9.56428C6.23128 9.27521 6.0157 8.59097 6.30477 8.03599C6.59383 7.481 7.27807 7.26543 7.83306 7.55449L6.78626 9.56428ZM15.1053 30.2047L15.1053 23.0211H17.3713V30.2047H15.1053ZM9.47808 17.4774L6.04818 13.8249L7.70006 12.2737L11.13 15.9261L9.47808 17.4774ZM9.70684 17.6646C9.06479 17.2664 8.20475 17.2354 6.95238 17.2354C6.38329 17.2354 5.72308 17.2375 5.09715 17.1495C4.46037 17.06 3.76913 16.8672 3.15495 16.4165L4.49569 14.5896C4.69816 14.7382 4.98349 14.8452 5.41259 14.9055C5.85255 14.9673 6.34755 14.9694 6.95238 14.9694C8.04785 14.9694 9.61052 14.9384 10.9012 15.7389L9.70684 17.6646ZM9.66551 15.7658C10.0975 15.471 9.88533 15.6117 9.84519 15.7078C9.8374 15.7264 9.86598 15.6685 9.87603 15.4446C9.8859 15.2245 9.87604 14.8976 9.82944 14.4101L12.0852 14.1945C12.1822 15.2088 12.1835 15.9891 11.9361 16.5813C11.6445 17.2792 11.0076 17.5933 10.9425 17.6377L9.66551 15.7658ZM15.4123 23.7967L12.4452 20.637L14.0971 19.0858L17.0642 22.2454L15.4123 23.7967ZM12.4452 20.637L9.47807 17.4774L11.13 15.9261L14.0971 19.0858L12.4452 20.637ZM12.5853 20.7633C12.5202 20.7137 12.2801 20.6058 11.7585 20.5504C11.2764 20.4992 10.6973 20.5067 10.1033 20.552C9.51481 20.5969 8.94356 20.6764 8.48889 20.7563C8.26195 20.7962 8.06934 20.8353 7.92278 20.8687C7.76024 20.9058 7.69534 20.9268 7.69881 20.9255L6.92051 18.7973C7.1626 18.7088 7.61485 18.6091 8.09653 18.5245C8.61151 18.4339 9.25703 18.3439 9.93089 18.2925C10.5992 18.2415 11.328 18.2259 11.9977 18.297C12.628 18.3639 13.3838 18.5237 13.957 18.9595L12.5853 20.7633ZM15.1053 23.0211L15.1053 16.0774H17.3713V23.0211H15.1053ZM15.1053 16.0774L15.1053 2.9209H17.3713V16.0774H15.1053ZM15.3716 16.8072L10.6895 11.247L12.4229 9.78738L17.105 15.3476L15.3716 16.8072ZM10.4306 10.3873C10.5565 9.29693 10.5921 8.31235 10.4331 7.11642L12.6793 6.81765C12.8696 8.24821 12.8224 9.42806 12.6818 10.6471L10.4306 10.3873ZM11.2754 11.6149C9.84148 11.2481 8.3993 10.4044 6.78626 9.56428L7.83306 7.55449C9.62958 8.49021 10.7329 9.13709 11.837 9.4195L11.2754 11.6149Z" fill="#FAF3D6"/>
</g>
<defs>
<filter id="filter0_i_780_3831" x="2.6922" y="1.38523" width="27.0922" height="31.0698" filterUnits="userSpaceOnUse" color-interpolation-filters="sRGB">
<feFlood flood-opacity="0" result="BackgroundImageFix"/>
<feBlend mode="normal" in="SourceGraphic" in2="BackgroundImageFix" result="shape"/>
<feColorMatrix in="SourceAlpha" type="matrix" values="0 0 0 0 0 0 0 0 0 0 0 0 0 0 0 0 0 0 127 0" result="hardAlpha"/>
<feOffset dy="-0.604282"/>
<feGaussianBlur stdDeviation="0.201427"/>
<feComposite in2="hardAlpha" operator="arithmetic" k2="-1" k3="1"/>
<feColorMatrix type="matrix" values="0 0 0 0 0 0 0 0 0 0 0 0 0 0 0 0 0 0 0.3 0"/>
<feBlend mode="normal" in2="shape" result="effect1_innerShadow_780_3831"/>
</filter>
</defs>
</svg>
