<svg width="75" height="86" viewBox="0 0 75 86" fill="none" xmlns="http://www.w3.org/2000/svg">
<path d="M31.0902 38.3733C31.0902 45.6169 25.5687 51.4319 18.826 51.4319C12.0833 51.4319 6.5618 45.6169 6.5618 38.3733C6.5618 31.1297 12.0833 25.3147 18.826 25.3147C25.5687 25.3147 31.0902 31.1297 31.0902 38.3733Z" stroke="#FAF3D6" stroke-width="1.09625"/>
<path d="M4.34766 85.7236V67.7706C4.34766 62.7313 8.43275 58.6462 13.472 58.6462H24.6917C29.7309 58.6462 33.816 62.7313 33.816 67.7706V85.7236" stroke="#FAF3D6" stroke-width="1.09625"/>
<path d="M71.5765 27.7596C71.5765 35.0032 66.055 40.8182 59.3123 40.8182C52.5696 40.8182 47.0481 35.0032 47.0481 27.7596C47.0481 20.516 52.5696 14.701 59.3123 14.701C66.055 14.701 71.5765 20.516 71.5765 27.7596Z" stroke="#FAF3D6" stroke-width="1.09625"/>
<path d="M44.4492 85.7244V56.2056C44.4492 51.1664 48.5343 47.0813 53.5735 47.0813H64.7932C69.8324 47.0813 73.9175 51.1664 73.9175 56.2056V85.7244" stroke="#FAF3D6" stroke-width="1.09625"/>
<path d="M0.94997 6.93055C0.94997 10.141 3.55258 12.7436 6.76306 12.7436H43.979V6.59871V6.26688C43.979 3.0564 41.3764 0.453794 38.1659 0.453794H6.76011C3.55126 0.453794 0.94997 3.05508 0.94997 6.26393V6.93055Z" stroke="#FAF3D6" stroke-width="0.657752"/>
</svg>
