<svg width="22" height="22" viewBox="0 0 22 22" fill="none" xmlns="http://www.w3.org/2000/svg">
<path d="M9.02147 2.39548C9.35778 0.118461 12.6422 0.11846 12.9785 2.39548L13.6142 6.69946C13.7431 7.57186 14.4281 8.25691 15.3005 8.38576L19.6045 9.02147C21.8815 9.35778 21.8815 12.6422 19.6045 12.9785L15.3005 13.6142C14.4281 13.7431 13.7431 14.4281 13.6142 15.3005L12.9785 19.6045C12.6422 21.8815 9.35779 21.8815 9.02147 19.6045L8.38576 15.3005C8.25691 14.4281 7.57186 13.7431 6.69946 13.6142L2.39548 12.9785C0.118461 12.6422 0.11846 9.35779 2.39548 9.02147L6.69946 8.38576C7.57186 8.25691 8.25691 7.57186 8.38576 6.69946L9.02147 2.39548Z" fill="#fff"/>
</svg>
