<svg width="288" height="287" viewBox="0 0 288 287" fill="none" xmlns="http://www.w3.org/2000/svg">
<path d="M117.286 273.533L114.557 272.959L114.847 271.582L117.575 272.156L119.477 263.114C119.59 262.577 119.609 262.138 119.536 261.797C119.442 261.47 119.105 261.227 118.523 261.068C118.055 260.97 117.582 260.897 117.103 260.851L117.393 259.474C117.636 259.525 117.88 259.567 118.126 259.601C118.372 259.635 118.617 259.677 118.859 259.728C119.95 259.957 120.669 260.326 121.014 260.832C121.356 261.356 121.399 262.188 121.141 263.328L119.212 272.5L121.551 272.992L121.261 274.369L118.923 273.877L118.076 277.905L116.439 277.561L117.286 273.533Z" fill="#FAF3D6"/>
<path d="M102.254 275.18L100.688 274.593L103.36 267.457L103.31 267.438C102.72 268.105 101.957 268.528 101.021 268.707C100.078 268.902 99.1508 268.829 98.2391 268.488C97.3439 268.152 96.6414 267.757 96.1315 267.302C95.605 266.84 95.2402 266.325 95.0368 265.758C94.8273 265.207 94.7628 264.596 94.8433 263.927C94.9238 263.258 95.1068 262.542 95.3923 261.78L98.4836 253.524L100.05 254.111L97.052 262.118C96.8471 262.665 96.7075 263.189 96.6332 263.69C96.5526 264.208 96.5715 264.688 96.6898 265.129C96.8081 265.57 97.0455 265.971 97.4021 266.331C97.742 266.685 98.2269 266.98 98.8569 267.216C99.4868 267.452 100.094 267.547 100.678 267.501C101.24 267.466 101.769 267.314 102.266 267.047C102.74 266.79 103.179 266.425 103.583 265.952C103.964 265.49 104.281 264.947 104.533 264.323L107.336 256.839L108.902 257.425L102.254 275.18Z" fill="#FAF3D6"/>
<path d="M76.6935 250.908C76.3837 251.465 76.1712 252.049 76.056 252.66C75.9255 253.262 75.9073 253.848 76.0014 254.418C76.0864 255.003 76.2896 255.546 76.6109 256.045C76.9233 256.559 77.3687 256.988 77.9473 257.331C78.5411 257.683 79.1386 257.873 79.7399 257.9C80.3321 257.943 80.9054 257.861 81.4599 257.654C82.0053 257.463 82.5305 257.168 83.0354 256.767C83.516 256.373 83.9448 255.928 84.3217 255.431L76.6935 250.908ZM85.0394 254.22C85.3464 253.703 85.5984 253.122 85.7954 252.477C85.9681 251.839 86.0255 251.204 85.9676 250.573C85.9097 249.942 85.7229 249.337 85.4072 248.759C85.0915 248.181 84.591 247.688 83.9059 247.282C82.8553 246.659 81.8706 246.446 80.9517 246.642C80.0329 246.838 79.1885 247.325 78.4184 248.103L76.9795 247.25C78.0785 246.09 79.2558 245.389 80.5114 245.146C81.7517 244.893 83.1179 245.21 84.6101 246.094C85.5388 246.645 86.251 247.283 86.7466 248.009C87.2179 248.742 87.4997 249.516 87.592 250.332C87.6753 251.163 87.6023 252.015 87.3731 252.888C87.1196 253.766 86.7446 254.624 86.2481 255.462C85.7876 256.238 85.2372 256.941 84.5969 257.57C83.9414 258.189 83.2289 258.662 82.4595 258.988C81.6811 259.329 80.8531 259.476 79.9755 259.429C79.0737 259.388 78.1584 259.092 77.2296 258.542C76.2856 257.982 75.5914 257.313 75.1472 256.535C74.703 255.757 74.4604 254.934 74.4194 254.066C74.3542 253.204 74.4695 252.316 74.7653 251.401C75.052 250.501 75.4544 249.648 75.9724 248.844L85.0394 254.22Z" fill="#FAF3D6"/>
<path d="M48.7434 234C49.2843 234.584 49.8826 234.983 50.5381 235.197C51.1937 235.41 51.8611 235.48 52.5404 235.406C53.2077 235.32 53.8733 235.114 54.5374 234.789C55.1764 234.463 55.7622 234.054 56.295 233.561C56.8278 233.068 57.288 232.51 57.6755 231.886C58.0381 231.261 58.2885 230.62 58.4269 229.961C58.5533 229.29 58.5356 228.619 58.3738 227.949C58.212 227.279 57.8606 226.651 57.3197 226.066C56.7788 225.482 56.1806 225.082 55.525 224.869C54.8694 224.656 54.208 224.592 53.5408 224.679C52.8615 224.753 52.2023 224.953 51.5633 225.278C50.8993 225.603 50.3009 226.012 49.7681 226.505C49.2354 226.998 48.7877 227.557 48.4252 228.181C48.0376 228.805 47.7806 229.453 47.6543 230.124C47.5159 230.783 47.5276 231.447 47.6894 232.117C47.8512 232.787 48.2025 233.415 48.7434 234ZM47.7104 234.955C47.0012 234.188 46.5191 233.381 46.264 232.531C45.997 231.669 45.9176 230.814 46.0257 229.967C46.1339 229.119 46.4167 228.291 46.8741 227.482C47.3185 226.685 47.9046 225.95 48.6322 225.277C49.3599 224.604 50.1448 224.071 50.9868 223.678C51.8159 223.297 52.6571 223.085 53.5105 223.043C54.3639 223.001 55.2101 223.147 56.0489 223.48C56.8626 223.813 57.6241 224.362 58.3333 225.129C59.0425 225.895 59.5371 226.704 59.8171 227.554C60.0722 228.403 60.1456 229.252 60.0374 230.099C59.9292 230.947 59.653 231.769 59.2085 232.566C58.7511 233.375 58.1586 234.116 57.4309 234.789C56.7032 235.462 55.9249 235.989 55.0958 236.37C54.2538 236.763 53.406 236.981 52.5526 237.023C51.6992 237.065 50.8591 236.925 50.0323 236.605C49.1935 236.272 48.4195 235.722 47.7104 234.955Z" fill="#FAF3D6"/>
<path d="M36.4769 220.823L35.5809 219.41L37.5765 218.145L37.5481 218.1C36.6749 218.276 35.8109 218.154 34.9562 217.731C34.0866 217.319 33.3911 216.701 32.8696 215.879C32.3577 215.072 32.0357 214.333 31.9036 213.662C31.7621 212.976 31.7814 212.346 31.9614 211.77C32.1266 211.204 32.443 210.679 32.9108 210.193C33.3785 209.708 33.9562 209.247 34.6438 208.811L42.088 204.09L42.984 205.502L35.764 210.082C35.2707 210.395 34.8432 210.729 34.4816 211.084C34.1049 211.448 33.8308 211.842 33.6591 212.266C33.4874 212.689 33.4351 213.152 33.5022 213.654C33.5599 214.142 33.7688 214.67 34.1291 215.238C34.4894 215.806 34.9164 216.247 35.4101 216.563C35.8794 216.873 36.3929 217.072 36.9508 217.158C37.4842 217.239 38.0544 217.213 38.6615 217.079C39.2441 216.94 39.8242 216.698 40.4017 216.353L47.1508 212.072L48.0468 213.485L36.4769 220.823Z" fill="#FAF3D6"/>
<path d="M20.0859 202.748L19.3929 201.225L36.6477 193.372L37.3407 194.894L20.0859 202.748Z" fill="#FAF3D6"/>
<path d="M20.3752 190.205L19.8461 188.507L29.6577 180.722L17.2479 180.166L16.7503 178.569L33.5774 179.557C34.2088 179.62 34.7336 179.697 35.1517 179.79C35.5867 179.877 35.945 180.015 36.2268 180.205C36.5202 180.374 36.7618 180.614 36.9516 180.925C37.1531 181.215 37.3328 181.613 37.4907 182.12C37.5738 182.446 37.6359 182.705 37.6769 182.896C37.7296 183.065 37.7516 183.225 37.743 183.376L36.3995 183.795C36.3753 183.598 36.3454 183.413 36.3097 183.239C36.2856 183.042 36.2445 182.851 36.1866 182.665C36.0761 182.31 35.9359 182.039 35.766 181.851C35.5909 181.646 35.3841 181.488 35.1455 181.377C34.9239 181.26 34.6679 181.182 34.3775 181.143C34.0871 181.104 33.7688 181.064 33.4225 181.023L31.7784 180.924L20.3752 190.205Z" fill="#FAF3D6"/>
<path d="M12.3189 153.797L12.3389 152.258L14.6487 152.288L14.6498 152.208C13.8059 151.754 13.1497 151.171 12.681 150.456C12.2125 149.724 11.9856 148.801 12.0001 147.686C12.0118 146.783 12.2437 145.972 12.6956 145.252C13.1478 144.514 13.8268 144.027 14.7327 143.791C13.8353 143.373 13.1706 142.762 12.7384 141.96C12.3063 141.158 12.0961 140.305 12.1078 139.402C12.1472 136.376 13.7688 134.883 16.9724 134.925L26.2648 135.046L26.2431 136.718L17.0303 136.599C15.8975 136.584 15.036 136.812 14.4457 137.282C13.8376 137.752 13.5258 138.589 13.5101 139.792C13.5007 140.518 13.6345 141.122 13.9115 141.603C14.1707 142.085 14.5286 142.47 14.9851 142.759C15.4416 143.048 15.97 143.259 16.5702 143.39C17.1529 143.504 17.7628 143.565 18.4 143.574L26.1526 143.674L26.1308 145.347L16.8384 145.226C16.3782 145.22 15.9439 145.268 15.5354 145.369C15.1094 145.452 14.7445 145.606 14.4406 145.832C14.1193 146.041 13.8677 146.329 13.6858 146.699C13.504 147.068 13.4096 147.518 13.4027 148.049C13.3935 148.757 13.5182 149.379 13.7768 149.913C14.0179 150.43 14.3664 150.859 14.8222 151.201C15.2605 151.526 15.7884 151.771 16.4058 151.939C17.0056 152.106 17.6683 152.194 18.394 152.204L26.0403 152.303L26.0185 153.976L12.3189 153.797Z" fill="#FAF3D6"/>
<path d="M22.3196 113.158C21.6944 113.033 21.0734 113.009 20.4567 113.087C19.8438 113.146 19.2803 113.308 18.7662 113.572C18.2347 113.832 17.7805 114.191 17.4034 114.65C17.0091 115.105 16.7371 115.66 16.5874 116.316C16.4337 116.989 16.4359 117.616 16.5938 118.196C16.7345 118.773 16.9878 119.294 17.3537 119.759C17.7024 120.22 18.1445 120.629 18.6801 120.988C19.2023 121.325 19.7575 121.597 20.3457 121.804L22.3196 113.158ZM21.7177 122.117C22.3044 122.251 22.9348 122.313 23.6088 122.304C24.2695 122.273 24.8914 122.133 25.4746 121.885C26.0578 121.637 26.5764 121.274 27.0303 120.797C27.4843 120.32 27.7999 119.693 27.9772 118.916C28.2491 117.725 28.1512 116.722 27.6836 115.908C27.216 115.093 26.494 114.438 25.5177 113.942L25.89 112.312C27.3298 113.003 28.3575 113.91 28.9731 115.031C29.5927 116.135 29.7094 117.532 29.3233 119.223C29.0829 120.276 28.6929 121.149 28.1532 121.843C27.6002 122.516 26.9493 123.021 26.2005 123.358C25.4344 123.692 24.6009 123.883 23.7002 123.931C22.7861 123.959 21.8545 123.864 20.9053 123.647C20.0252 123.446 19.1879 123.137 18.3936 122.72C17.6031 122.285 16.9352 121.751 16.3897 121.118C15.827 120.482 15.4338 119.738 15.2103 118.888C14.9734 118.017 14.9751 117.055 15.2154 116.002C15.4597 114.932 15.8842 114.067 16.489 113.406C17.0938 112.745 17.8032 112.263 18.6171 111.958C19.4177 111.633 20.299 111.471 21.2609 111.473C22.2055 111.47 23.1399 111.593 24.0639 111.84L21.7177 122.117Z" fill="#FAF3D6"/>
<path d="M20.2007 98.972L20.8509 97.576L22.9449 98.5514L22.9785 98.4792C22.3952 97.7193 22.0363 96.9175 21.9021 96.0739C21.7753 95.2142 21.9473 94.2789 22.4181 93.268C22.7993 92.4496 23.3437 91.8049 24.0513 91.3339C24.7663 90.8468 25.5853 90.6815 26.5083 90.8381C25.8619 90.0878 25.5062 89.2582 25.4414 88.3493C25.3766 87.4404 25.5348 86.5768 25.9159 85.7584C27.194 83.0145 29.2852 82.319 32.1895 83.6718L40.6137 87.5956L39.9074 89.112L31.5554 85.2218C30.5285 84.7434 29.6494 84.5976 28.918 84.7842C28.1707 84.9633 27.5429 85.5984 27.0347 86.6896C26.7282 87.3475 26.6025 87.9528 26.6574 88.5056C26.6963 89.051 26.8646 89.5492 27.1622 90.0003C27.4598 90.4513 27.8552 90.8601 28.3485 91.2265C28.8332 91.5694 29.3643 91.8754 29.942 92.1445L36.9702 95.4181L36.2639 96.9344L27.8397 93.0106C27.4225 92.8163 27.0069 92.6813 26.593 92.6057C26.1706 92.5065 25.7743 92.4977 25.4044 92.5793C25.0259 92.6373 24.6779 92.7974 24.3605 93.0596C24.0431 93.3219 23.7723 93.6937 23.5481 94.1751C23.2491 94.8169 23.1079 95.4346 23.1243 96.0281C23.1322 96.598 23.2738 97.1326 23.549 97.6318C23.8156 98.1075 24.1961 98.5483 24.6904 98.9543C25.1687 99.3529 25.7368 99.7053 26.3947 100.012L33.3266 103.241L32.6203 104.757L20.2007 98.972Z" fill="#FAF3D6"/>
<path d="M31.2103 66.994L32.2306 65.6684L38.4587 70.4621L38.4911 70.42C38.2063 69.9775 38.0138 69.5166 37.9136 69.0373C37.8241 68.5441 37.8108 68.0536 37.8735 67.5657C37.9222 67.0671 38.0486 66.5837 38.2527 66.1153C38.4569 65.647 38.7101 65.2164 39.0124 64.8236C39.6494 63.996 40.3543 63.3994 41.1272 63.0337C41.9108 62.654 42.7257 62.4659 43.5719 62.4694C44.404 62.4621 45.2463 62.6301 46.0988 62.9736C46.9373 63.3062 47.7423 63.7695 48.5138 64.3633C49.2853 64.9571 49.9462 65.6221 50.4964 66.3583C51.0326 67.0837 51.4107 67.855 51.6306 68.6721C51.8365 69.4783 51.8563 70.3088 51.6898 71.1636C51.5202 71.9935 51.1168 72.8222 50.4798 73.6499C49.7996 74.5336 48.9862 75.1696 48.0396 75.5579C47.1038 75.9321 46.1384 75.982 45.1433 75.7076L45.111 75.7497L47.173 77.3368L46.2337 78.5572L31.2103 66.994ZM47.4936 65.6889C46.9325 65.257 46.3244 64.9007 45.6693 64.6199C45.0111 64.3143 44.3512 64.1414 43.6896 64.1013C43.0388 64.0472 42.4074 64.142 41.7954 64.3857C41.1693 64.6186 40.6134 65.0507 40.1276 65.682C39.5877 66.3833 39.2691 67.0875 39.1718 67.7944C39.0712 68.4764 39.1196 69.1391 39.317 69.7824C39.5251 70.4117 39.8557 71.0124 40.3088 71.5845C40.7587 72.1319 41.2642 72.6214 41.8253 73.0533C42.3864 73.4852 42.9961 73.8539 43.6544 74.1595C44.3094 74.4403 44.9677 74.6008 45.6293 74.6409C46.3017 74.667 46.9617 74.5495 47.6093 74.2885C48.2537 74.0027 48.8459 73.5091 49.3857 72.8077C49.8715 72.1765 50.1539 71.5339 50.2329 70.8798C50.2978 70.215 50.2209 69.575 50.0019 68.9598C49.7938 68.3305 49.4648 67.7422 49.0149 67.1949C48.5618 66.6227 48.0547 66.1207 47.4936 65.6889Z" fill="#FAF3D6"/>
<path d="M62.6191 48.9436C62.1793 48.4821 61.685 48.1056 61.1361 47.8139C60.6004 47.5104 60.0463 47.3187 59.4739 47.2389C58.8896 47.1459 58.3114 47.1786 57.7392 47.3369C57.1551 47.4821 56.6133 47.7799 56.1136 48.2302C55.6009 48.6925 55.2421 49.2065 55.0372 49.7724C54.8206 50.3252 54.7282 50.897 54.7603 51.4877C54.7805 52.0653 54.9066 52.6546 55.1386 53.2558C55.3719 53.8319 55.6697 54.3737 56.0319 54.8813L62.6191 48.9436ZM56.9741 55.9266C57.3771 56.3736 57.857 56.7871 58.4138 57.1669C58.972 57.5217 59.5609 57.7653 60.1807 57.8977C60.8006 58.0301 61.4334 58.0316 62.0793 57.9022C62.7253 57.7727 63.3441 57.4414 63.9357 56.908C64.843 56.0903 65.3396 55.2136 65.4257 54.2781C65.5119 53.3425 65.298 52.3914 64.7841 51.4247L66.0266 50.3048C66.8066 51.6988 67.126 53.0314 66.9849 54.3025C66.8569 55.5618 66.1487 56.7721 64.8602 57.9336C64.0581 58.6565 63.2368 59.1466 62.3963 59.4038C61.557 59.6361 60.7341 59.6748 59.9274 59.5202C59.1089 59.3524 58.3172 59.0294 57.5524 58.551C56.7889 58.0477 56.0812 57.4344 55.4294 56.7113C54.825 56.0407 54.3178 55.3063 53.908 54.508C53.5114 53.6978 53.2719 52.8769 53.1897 52.0455C53.0957 51.2008 53.2016 50.3666 53.5075 49.5427C53.8148 48.6938 54.3694 47.9079 55.1714 47.185C55.9866 46.4502 56.8316 45.9864 57.7064 45.7936C58.5812 45.6008 59.4391 45.614 60.28 45.8331C61.1222 46.0271 61.9363 46.4015 62.7222 46.9561C63.4963 47.4976 64.1902 48.1352 64.8039 48.8689L56.9741 55.9266Z" fill="#FAF3D6"/>
<path d="M68.6099 36.9157L69.8923 36.0629L71.6714 38.7382L71.7156 38.7088C71.4518 37.5449 71.5218 36.4674 71.9255 35.4761C72.3439 34.4751 73.0837 33.6536 74.1449 33.0116L75.0712 34.4045C74.4178 34.7965 73.9018 35.2672 73.5231 35.8167C73.1347 36.3514 72.8713 36.9304 72.7332 37.5537C72.6097 38.1673 72.6164 38.8006 72.7531 39.4537C72.88 40.0921 73.1444 40.7134 73.5463 41.3178L77.5897 47.3978L76.1968 48.3241L68.6099 36.9157Z" fill="#FAF3D6"/>
<path d="M91.483 28.5088C91.2463 28.053 90.9601 27.6991 90.6245 27.4472C90.2813 27.1793 89.9045 27.0058 89.4943 26.9267C89.1001 26.84 88.6884 26.84 88.2592 26.9268C87.8223 26.9976 87.3882 27.1357 86.9567 27.3412C86.6211 27.501 86.2965 27.7046 85.983 27.952C85.6778 28.1757 85.4232 28.444 85.2193 28.7568C85.0077 29.0536 84.8787 29.3797 84.8323 29.7351C84.7859 30.0906 84.8579 30.468 85.0481 30.8676C85.208 31.2032 85.4249 31.4528 85.6989 31.6164C85.9812 31.7564 86.2883 31.8454 86.6201 31.8835C86.9519 31.9215 87.2963 31.9242 87.6532 31.8914C88.0025 31.8427 88.3203 31.7894 88.6064 31.7316L90.837 31.228C91.299 31.0865 91.7795 31.0046 92.2788 30.9825C92.7864 30.9368 93.2647 30.9737 93.7137 31.0932C94.1787 31.205 94.6102 31.4113 95.0083 31.7119C95.4063 32.0124 95.7347 32.4344 95.9935 32.9778C96.3132 33.649 96.4353 34.2967 96.36 34.9207C96.2771 35.5288 96.0682 36.0988 95.7334 36.6308C95.4069 37.1392 94.9785 37.5981 94.4481 38.0076C93.9176 38.417 93.3648 38.7588 92.7894 39.0328C91.3351 39.7254 89.9889 39.945 88.7506 39.6916C87.5284 39.4307 86.4918 38.5715 85.6409 37.1141L87.1512 36.3949C87.7022 37.3873 88.4389 37.9873 89.3613 38.195C90.2921 38.3792 91.2608 38.2315 92.2677 37.752C92.6353 37.5769 92.9918 37.3581 93.3373 37.0955C93.6988 36.8253 94.0016 36.5144 94.2459 36.1628C94.4902 35.8112 94.6477 35.4421 94.7185 35.0555C94.7976 34.6453 94.7344 34.2244 94.5289 33.7929C94.3539 33.4254 94.1293 33.1598 93.8554 32.9962C93.5898 32.809 93.291 32.6963 92.9592 32.6583C92.6198 32.6043 92.2556 32.6013 91.8668 32.6492C91.4939 32.6896 91.1206 32.7497 90.7469 32.8296L88.5996 33.3229C88.0433 33.431 87.5194 33.5041 87.0277 33.5421C86.5285 33.5642 86.062 33.5315 85.6282 33.444C85.2028 33.3329 84.8184 33.1435 84.4752 32.8756C84.1243 32.5917 83.8233 32.1861 83.5722 31.6587C83.2753 31.0355 83.1562 30.4354 83.2148 29.8585C83.2893 29.274 83.4856 28.7394 83.8037 28.2546C84.1218 27.7698 84.5221 27.3341 85.0046 26.9475C85.5031 26.5532 86.024 26.2267 86.5673 25.9679C87.1906 25.6711 87.804 25.477 88.4075 25.3856C89.027 25.2867 89.6164 25.3099 90.1758 25.4552C90.7511 25.5929 91.2766 25.8524 91.7523 26.2337C92.228 26.6149 92.6416 27.1336 92.9933 27.7896L91.483 28.5088Z" fill="#FAF3D6"/>
<path d="M126.688 18.6563C126.293 17.681 125.743 16.9557 125.036 16.4806C124.33 16.0054 123.426 15.8588 122.326 16.0409C121.54 16.1709 120.878 16.451 120.339 16.881C119.8 17.3111 119.375 17.83 119.062 18.4379C118.768 19.0428 118.574 19.7119 118.48 20.4451C118.4 21.158 118.42 21.8725 118.538 22.5885C118.657 23.3045 118.87 23.9959 119.177 24.6627C119.5 25.3091 119.898 25.8712 120.371 26.349C120.863 26.8239 121.433 27.1782 122.081 27.4117C122.73 27.6453 123.447 27.6971 124.233 27.567C124.74 27.4832 125.204 27.3077 125.626 27.0405C126.049 26.7732 126.407 26.4448 126.701 26.0552C126.993 25.6481 127.213 25.1901 127.362 24.681C127.511 24.1719 127.565 23.6336 127.525 23.0661L129.176 22.793C129.22 24.4722 128.83 25.8555 128.005 26.9429C127.178 28.0128 125.995 28.6749 124.459 28.9292C123.428 29.0997 122.481 29.068 121.617 28.8342C120.768 28.58 120.019 28.1747 119.37 27.6181C118.722 27.0615 118.187 26.3785 117.766 25.569C117.342 24.742 117.05 23.8395 116.888 22.8616C116.726 21.8836 116.714 20.9436 116.852 20.0416C116.987 19.1222 117.271 18.2946 117.706 17.5589C118.14 16.8232 118.719 16.1982 119.441 15.6839C120.181 15.1668 121.066 14.823 122.096 14.6525C123.546 14.4127 124.832 14.5946 125.954 15.1983C127.094 15.7991 127.889 16.8608 128.338 18.3833L126.688 18.6563Z" fill="#FAF3D6"/>
<path d="M138.369 8.07521L140.041 8.02469L140.613 26.9741L138.941 27.0247L138.369 8.07521Z" fill="#FAF3D6"/>
<path d="M161.08 28.0904L159.549 27.9246L159.815 25.4696L159.762 25.4639C159.223 26.3313 158.505 26.9657 157.607 27.367C156.728 27.7526 155.778 27.8901 154.758 27.7795C153.895 27.6862 153.17 27.4829 152.58 27.1698C152.007 26.8763 151.55 26.4885 151.211 26.0066C150.889 25.5266 150.674 24.9604 150.567 24.3077C150.459 23.6551 150.45 22.9241 150.537 22.1146L151.495 13.2714L153.158 13.4515L152.197 22.3211C152.099 23.5568 152.28 24.52 152.739 25.2107C153.216 25.9033 154.114 26.3211 155.434 26.464C156.156 26.5422 156.788 26.4593 157.331 26.2154C157.875 25.9539 158.343 25.5861 158.732 25.1119C159.122 24.6378 159.431 24.0837 159.66 23.4498C159.891 22.7982 160.043 22.1292 160.118 21.4429L160.892 14.2891L162.556 14.4692L161.08 28.0904Z" fill="#FAF3D6"/>
<path d="M176.678 11.7437L178.279 12.2275L176.006 19.751L176.057 19.7663C176.369 19.3431 176.732 18.9996 177.145 18.7359C177.574 18.4774 178.028 18.2909 178.506 18.1766C178.99 18.0453 179.487 17.992 179.997 18.0167C180.507 18.0415 181 18.1255 181.474 18.2689C182.474 18.571 183.282 19.0185 183.898 19.6114C184.531 20.2095 184.995 20.9047 185.292 21.6971C185.594 22.4725 185.736 23.3197 185.717 24.2386C185.703 25.1406 185.556 26.0575 185.274 26.9895C184.993 27.9214 184.605 28.7752 184.112 29.5508C183.624 30.3094 183.037 30.9364 182.351 31.4318C181.67 31.9103 180.9 32.2233 180.042 32.3708C179.206 32.5065 178.288 32.4233 177.288 32.1212C176.221 31.7986 175.338 31.2637 174.639 30.5163C173.957 29.774 173.568 28.889 173.472 27.8614L173.421 27.846L172.668 30.3369L171.194 29.8915L176.678 11.7437ZM183.673 26.5057C183.878 25.8279 183.995 25.133 184.025 24.4209C184.078 23.697 184.005 23.0187 183.808 22.3859C183.628 21.7582 183.315 21.2015 182.87 20.7157C182.431 20.213 181.829 19.8464 181.067 19.616C180.22 19.36 179.448 19.3119 178.753 19.4716C178.08 19.6194 177.477 19.8997 176.946 20.3123C176.431 20.7301 175.987 21.2523 175.612 21.8789C175.26 22.4936 174.982 23.1399 174.777 23.8177C174.572 24.4955 174.444 25.1963 174.391 25.9202C174.361 26.6322 174.444 27.3046 174.642 27.9374C174.856 28.5754 175.2 29.1508 175.673 29.6638C176.169 30.1649 176.841 30.5435 177.688 30.7995C178.45 31.0299 179.151 31.066 179.791 30.9079C180.435 30.7329 181.007 30.4339 181.504 30.011C182.019 29.5932 182.452 29.077 182.804 28.4622C183.179 27.8356 183.468 27.1834 183.673 26.5057Z" fill="#FAF3D6"/>
<path d="M210.291 30.9776L211.781 31.9499L209.176 44.2005L219.096 36.7243L220.497 37.6386L206.896 47.5957C206.37 47.9495 205.916 48.2239 205.535 48.4191C205.144 48.6292 204.779 48.7505 204.441 48.7833C204.108 48.8406 203.768 48.8095 203.424 48.6901C203.084 48.5953 202.692 48.4027 202.247 48.1125C201.975 47.9138 201.762 47.7539 201.609 47.6326C201.461 47.5359 201.342 47.4266 201.252 47.3047L202.021 46.1262C202.165 46.2623 202.306 46.3861 202.445 46.4977C202.589 46.6338 202.742 46.755 202.905 46.8614C203.216 47.0646 203.497 47.1846 203.748 47.2214C204.014 47.2679 204.274 47.258 204.528 47.1917C204.773 47.1402 205.02 47.0372 205.269 46.8825C205.518 46.7279 205.789 46.5559 206.082 46.3664L207.412 45.3961L210.291 30.9776Z" fill="#FAF3D6"/>
<path d="M231.971 48.3641C231.386 47.8231 230.759 47.4718 230.088 47.3099C229.418 47.1481 228.747 47.1303 228.076 47.2567C227.417 47.395 226.77 47.6519 226.133 48.0274C225.521 48.4019 224.969 48.8556 224.476 49.3883C223.983 49.9211 223.568 50.5134 223.23 51.1654C222.917 51.8164 222.717 52.4755 222.63 53.1428C222.557 53.8221 222.626 54.4895 222.84 55.1451C223.053 55.8007 223.452 56.399 224.037 56.9399C224.622 57.4808 225.249 57.8322 225.919 57.994C226.589 58.1559 227.254 58.1676 227.912 58.0293C228.584 57.903 229.225 57.6525 229.837 57.278C230.474 56.9025 231.039 56.4484 231.532 55.9157C232.024 55.3829 232.427 54.791 232.74 54.14C233.078 53.4881 233.284 52.8224 233.358 52.1432C233.445 51.4759 233.381 50.8145 233.168 50.1589C232.954 49.5033 232.555 48.905 231.971 48.3641ZM232.926 47.3311C233.693 48.0403 234.236 48.8083 234.557 49.6351C234.89 50.474 235.036 51.3201 234.994 52.1735C234.952 53.0269 234.734 53.8746 234.341 54.7166C233.96 55.5456 233.433 56.324 232.759 57.0516C232.086 57.7793 231.345 58.3718 230.536 58.8291C229.739 59.2735 228.917 59.5497 228.07 59.6578C227.222 59.7659 226.367 59.6865 225.505 59.4194C224.668 59.1513 223.866 58.6626 223.099 57.9534C222.333 57.2442 221.777 56.4766 221.431 55.6508C221.111 54.824 220.972 53.9839 221.014 53.1305C221.056 52.2771 221.268 51.4359 221.649 50.6068C222.042 49.7648 222.575 48.98 223.248 48.2523C223.921 47.5247 224.656 46.9387 225.453 46.4943C226.262 46.037 227.09 45.7543 227.938 45.6461C228.786 45.538 229.634 45.6115 230.483 45.8666C231.345 46.1337 232.16 46.6219 232.926 47.3311Z" fill="#FAF3D6"/>
<path d="M240.93 77.6637L240.006 76.4313L241.983 74.9506L241.951 74.9081C240.949 75.1059 239.995 75.0134 239.089 74.6306C238.207 74.2514 237.459 73.651 236.843 72.8294C236.323 72.1352 235.976 71.4659 235.803 70.8215C235.627 70.2019 235.599 69.6036 235.719 69.0266C235.85 68.4637 236.118 67.9204 236.522 67.3967C236.926 66.8729 237.453 66.3669 238.105 65.8786L245.223 60.5451L246.227 61.8838L239.087 67.2333C238.116 68.0046 237.535 68.7938 237.344 69.6009C237.163 70.4221 237.47 71.364 238.267 72.4264C238.702 73.0072 239.194 73.4128 239.742 73.6432C240.305 73.863 240.893 73.9535 241.505 73.9149C242.118 73.8762 242.734 73.7243 243.353 73.4591C243.987 73.1832 244.58 72.8383 245.133 72.4244L250.891 68.1097L251.894 69.4484L240.93 77.6637Z" fill="#FAF3D6"/>
<path d="M264.596 80.2656L262.098 81.6185C261.755 81.804 261.388 81.9427 260.995 82.0347C260.626 82.1339 260.247 82.178 259.858 82.1669C259.486 82.1474 259.119 82.0644 258.757 81.9178C258.405 81.7867 258.084 81.5675 257.797 81.2601L258.801 80.7164C258.973 80.885 259.175 80.9972 259.406 81.053C259.653 81.1004 259.911 81.1118 260.18 81.0872C260.448 81.0625 260.7 81.0068 260.934 80.9199C261.193 80.8402 261.412 80.742 261.59 80.6252L261.059 79.6446L263.534 78.3044L264.596 80.2656Z" fill="#FAF3D6"/>
<path d="M269.768 91.0401L270.409 92.5855L252.894 99.8413L252.254 98.2959L269.768 91.0401Z" fill="#FAF3D6"/>
<path d="M274.294 103.207L274.785 104.807L256.661 110.369L256.171 108.77L274.294 103.207Z" fill="#FAF3D6"/>
<path d="M269.623 141.952C270.258 141.901 270.862 141.755 271.435 141.512C272.008 141.288 272.506 140.978 272.929 140.584C273.369 140.189 273.708 139.719 273.946 139.175C274.201 138.63 274.311 138.022 274.276 137.35C274.241 136.661 274.067 136.058 273.757 135.542C273.464 135.026 273.079 134.594 272.6 134.247C272.139 133.898 271.602 133.625 270.989 133.426C270.394 133.244 269.786 133.134 269.163 133.096L269.623 141.952ZM267.758 133.168C267.157 133.2 266.534 133.312 265.888 133.505C265.261 133.715 264.7 134.018 264.207 134.416C263.714 134.814 263.314 135.305 263.007 135.888C262.701 136.471 262.568 137.16 262.609 137.956C262.672 139.175 263.04 140.113 263.712 140.77C264.385 141.426 265.258 141.859 266.332 142.07L266.419 143.74C264.845 143.467 263.609 142.876 262.711 141.965C261.814 141.072 261.32 139.759 261.23 138.027C261.174 136.949 261.311 136.002 261.641 135.187C261.99 134.389 262.478 133.726 263.107 133.197C263.753 132.667 264.502 132.256 265.356 131.964C266.228 131.688 267.15 131.525 268.122 131.475C269.024 131.428 269.914 131.497 270.792 131.682C271.671 131.884 272.459 132.215 273.156 132.676C273.871 133.135 274.453 133.743 274.899 134.499C275.365 135.273 275.626 136.199 275.682 137.277C275.739 138.373 275.566 139.322 275.165 140.122C274.763 140.923 274.212 141.581 273.512 142.096C272.831 142.627 272.027 143.024 271.101 143.284C270.193 143.544 269.261 143.681 268.304 143.695L267.758 133.168Z" fill="#FAF3D6"/>
<path d="M275.407 152.865L275.199 154.711L262.765 157.64L262.759 157.693L274.236 163.26L274.043 164.975L261.002 158.35L261.201 156.582L275.407 152.865Z" fill="#FAF3D6"/>
<path d="M263.821 182.574C264.439 182.731 265.058 182.787 265.678 182.741C266.293 182.713 266.864 182.581 267.391 182.344C267.935 182.112 268.407 181.776 268.808 181.338C269.225 180.904 269.525 180.363 269.709 179.716C269.897 179.052 269.927 178.426 269.799 177.838C269.689 177.254 269.462 176.721 269.121 176.238C268.797 175.76 268.376 175.328 267.86 174.943C267.356 174.579 266.815 174.279 266.239 174.042L263.821 182.574ZM264.885 173.658C264.306 173.494 263.679 173.399 263.006 173.374C262.344 173.371 261.716 173.478 261.121 173.695C260.526 173.913 259.989 174.249 259.511 174.702C259.033 175.155 258.685 175.765 258.468 176.531C258.135 177.707 258.181 178.713 258.606 179.551C259.031 180.389 259.718 181.08 260.668 181.625L260.212 183.235C258.809 182.47 257.83 181.511 257.273 180.36C256.711 179.226 256.667 177.824 257.14 176.155C257.434 175.116 257.869 174.264 258.444 173.599C259.031 172.956 259.707 172.485 260.472 172.187C261.254 171.893 262.096 171.746 262.998 171.744C263.913 171.764 264.838 171.906 265.775 172.172C266.644 172.418 267.464 172.77 268.235 173.228C269.002 173.702 269.642 174.27 270.154 174.93C270.683 175.595 271.037 176.358 271.217 177.218C271.408 178.101 271.357 179.061 271.063 180.1C270.763 181.156 270.295 181.998 269.657 182.627C269.018 183.256 268.285 183.701 267.457 183.963C266.64 184.247 265.752 184.363 264.791 184.312C263.848 184.265 262.921 184.094 262.011 183.8L264.885 173.658Z" fill="#FAF3D6"/>
<path d="M265.156 195.944L264.524 197.348L261.594 196.03L261.572 196.079C262.415 196.924 262.929 197.873 263.115 198.927C263.293 199.997 263.104 201.087 262.547 202.195L261.021 201.508C261.366 200.829 261.552 200.156 261.581 199.489C261.625 198.83 261.54 198.199 261.325 197.598C261.103 197.013 260.761 196.48 260.297 196C259.85 195.527 259.296 195.142 258.634 194.844L251.975 191.848L252.661 190.322L265.156 195.944Z" fill="#FAF3D6"/>
<path d="M249.96 222.903L248.9 224.197L247.072 222.7L247.038 222.742C247.48 223.515 247.635 224.374 247.502 225.318C247.384 226.273 247.016 227.127 246.399 227.881C245.794 228.62 245.193 229.158 244.598 229.494C243.991 229.844 243.386 230.024 242.784 230.034C242.195 230.055 241.596 229.919 240.988 229.628C240.381 229.336 239.762 228.932 239.132 228.416L232.311 222.832L233.371 221.538L239.986 226.954C240.438 227.324 240.889 227.625 241.34 227.857C241.805 228.1 242.265 228.236 242.721 228.266C243.177 228.296 243.632 228.201 244.088 227.979C244.533 227.771 244.968 227.407 245.395 226.887C245.821 226.366 246.106 225.822 246.251 225.254C246.398 224.711 246.425 224.161 246.332 223.604C246.241 223.073 246.037 222.539 245.719 222.005C245.404 221.496 244.992 221.021 244.483 220.581L238.299 215.518L239.359 214.224L249.96 222.903Z" fill="#FAF3D6"/>
<path d="M222.822 242.614C223.249 243.087 223.734 243.476 224.275 243.782C224.803 244.099 225.352 244.305 225.922 244.399C226.504 244.507 227.083 244.489 227.659 244.346C228.246 244.216 228.796 243.932 229.307 243.495C229.831 243.046 230.203 242.541 230.422 241.981C230.653 241.434 230.76 240.865 230.743 240.273C230.738 239.695 230.627 239.103 230.411 238.496C230.192 237.914 229.909 237.365 229.56 236.848L222.822 242.614ZM228.645 235.779C228.253 235.321 227.784 234.896 227.237 234.502C226.689 234.133 226.106 233.874 225.49 233.726C224.874 233.577 224.241 233.56 223.592 233.672C222.943 233.785 222.316 234.1 221.711 234.618C220.783 235.412 220.264 236.276 220.153 237.209C220.043 238.142 220.233 239.098 220.721 240.078L219.45 241.165C218.707 239.752 218.422 238.411 218.595 237.144C218.756 235.889 219.495 234.697 220.813 233.569C221.633 232.867 222.467 232.398 223.314 232.163C224.159 231.952 224.983 231.935 225.785 232.11C226.599 232.299 227.382 232.642 228.134 233.14C228.884 233.663 229.576 234.294 230.209 235.034C230.796 235.72 231.284 236.467 231.673 237.276C232.049 238.096 232.267 238.923 232.328 239.756C232.4 240.603 232.273 241.434 231.946 242.25C231.617 243.09 231.042 243.862 230.222 244.564C229.388 245.277 228.531 245.719 227.652 245.889C226.772 246.06 225.915 246.024 225.08 245.784C224.243 245.568 223.439 245.173 222.667 244.598C221.908 244.037 221.23 243.382 220.636 242.632L228.645 235.779Z" fill="#FAF3D6"/>
<path d="M204.844 254.703C205.184 255.242 205.595 255.709 206.075 256.103C206.541 256.506 207.046 256.803 207.592 256.994C208.146 257.2 208.719 257.282 209.312 257.24C209.913 257.212 210.503 257.027 211.081 256.684C211.675 256.332 212.128 255.899 212.441 255.384C212.762 254.885 212.965 254.343 213.05 253.757C213.144 253.187 213.137 252.584 213.028 251.949C212.912 251.339 212.727 250.749 212.472 250.18L204.844 254.703ZM211.754 248.969C211.447 248.452 211.058 247.952 210.587 247.47C210.11 247.012 209.581 246.657 208.999 246.405C208.418 246.153 207.797 246.027 207.139 246.026C206.48 246.026 205.808 246.229 205.123 246.635C204.072 247.258 203.412 248.02 203.144 248.92C202.875 249.82 202.897 250.795 203.21 251.844L201.772 252.697C201.282 251.176 201.231 249.807 201.62 248.589C201.994 247.379 202.926 246.332 204.419 245.447C205.347 244.897 206.249 244.578 207.124 244.492C207.992 244.429 208.807 244.554 209.567 244.864C210.337 245.19 211.049 245.663 211.705 246.282C212.354 246.926 212.927 247.667 213.424 248.504C213.884 249.281 214.236 250.101 214.481 250.964C214.71 251.837 214.783 252.689 214.7 253.52C214.626 254.367 214.357 255.164 213.895 255.911C213.426 256.683 212.728 257.344 211.799 257.895C210.855 258.454 209.935 258.743 209.04 258.759C208.144 258.776 207.305 258.594 206.524 258.213C205.737 257.857 205.012 257.33 204.351 256.631C203.699 255.948 203.144 255.186 202.687 254.345L211.754 248.969Z" fill="#FAF3D6"/>
<path d="M180.219 256.959L181.664 256.425L182.566 258.866L182.616 258.847C182.628 258.371 182.736 257.897 182.939 257.426C183.126 256.96 183.381 256.527 183.704 256.124C184.033 255.738 184.414 255.39 184.846 255.079C185.262 254.774 185.703 254.536 186.167 254.364C187.147 254.002 188.067 253.861 188.926 253.94C189.775 254.041 190.554 254.31 191.262 254.746C191.977 255.199 192.601 255.79 193.134 256.517C193.673 257.262 194.112 258.09 194.449 259.004C194.786 259.917 194.989 260.823 195.057 261.723C195.132 262.639 195.042 263.493 194.787 264.285C194.539 265.094 194.125 265.813 193.546 266.442C192.951 267.077 192.163 267.576 191.183 267.938C190.702 268.116 190.216 268.23 189.724 268.279C189.216 268.335 188.717 268.312 188.227 268.21C187.742 268.125 187.286 267.963 186.859 267.725C186.414 267.493 186.023 267.175 185.685 266.771L185.635 266.79L188.36 274.162L186.791 274.742L180.219 256.959ZM192.88 259.583C192.634 258.919 192.314 258.283 191.919 257.674C191.514 257.088 191.05 256.599 190.528 256.207C189.989 255.821 189.393 255.56 188.739 255.424C188.091 255.305 187.393 255.383 186.646 255.66C185.816 255.966 185.177 256.382 184.729 256.906C184.27 257.453 183.962 258.048 183.803 258.691C183.628 259.341 183.586 260.017 183.676 260.72C183.755 261.446 183.917 262.141 184.163 262.805C184.408 263.469 184.734 264.094 185.139 264.68C185.534 265.289 186.009 265.784 186.565 266.163C187.103 266.549 187.722 266.792 188.419 266.893C189.107 267.017 189.865 266.925 190.696 266.618C191.443 266.342 192.021 265.94 192.429 265.411C192.844 264.9 193.131 264.322 193.289 263.678C193.431 263.041 193.462 262.359 193.383 261.634C193.293 260.931 193.125 260.248 192.88 259.583Z" fill="#FAF3D6"/>
<path d="M169.227 259.838L169.794 262.595L167.61 263.044L167.043 260.287L169.227 259.838Z" fill="#FAF3D6"/>
</svg>
