<svg width="76" height="52" viewBox="0 0 76 52" fill="none" xmlns="http://www.w3.org/2000/svg">
<path d="M73.4936 8.54614C63.6443 40.8108 44.2764 48.568 0.25 51.7099H74.4459C74.89 51.7099 75.25 51.3499 75.25 50.9058V8.77676C75.25 7.82652 73.771 7.63731 73.4936 8.54614Z" stroke="#FAF3D6" stroke-width="0.482487"/>
<path d="M24.4996 37.1483V51.5212H34.3222V37.1637C34.3222 34.7207 36.3026 32.7403 38.7456 32.7403C42.0781 32.7403 44.2138 29.1948 42.6558 26.2489L30.5609 3.37989C29.9501 2.225 28.2901 2.24171 27.7027 3.40866L16.1542 26.3502C14.6784 29.2818 16.8094 32.7403 20.0915 32.7403C22.526 32.7403 24.4996 34.7138 24.4996 37.1483Z" fill="#394739" stroke="#FAF3D6" stroke-width="0.643316"/>
<path d="M52.5936 43.225V51.5214H58.2932V43.2337C58.2932 41.8179 59.4409 40.6702 60.8566 40.6702C62.7899 40.6702 64.0274 38.6117 63.1206 36.9043L56.1086 23.7025C55.7543 23.0353 54.795 23.045 54.4542 23.7192L47.759 36.9629C46.8999 38.6622 48.1348 40.6702 50.0389 40.6702C51.4498 40.6702 52.5936 41.814 52.5936 43.225Z" fill="#364436" stroke="#FAF3D6" stroke-width="0.643316"/>
</svg>
