<svg width="33" height="33" viewBox="0 0 33 33" fill="none" xmlns="http://www.w3.org/2000/svg">
<circle cx="16.2653" cy="16.2653" r="16.2653" fill="#303C30"/>
<g filter="url(#filter0_i_258_1454)">
<path d="M15.1072 31.3219V32.4549H17.3733V31.3219H15.1072ZM17.3733 2.92065C17.3733 2.2949 16.866 1.78763 16.2402 1.78763C15.6145 1.78763 15.1072 2.2949 15.1072 2.92065H17.3733ZM26.4303 13.8247C26.8587 13.3685 26.8362 12.6515 26.38 12.2231C25.9239 11.7947 25.2068 11.8173 24.7785 12.2734L26.4303 13.8247ZM29.3236 16.4163C29.828 16.046 29.9369 15.3369 29.5666 14.8325C29.1964 14.328 28.4873 14.2192 27.9828 14.5894L29.3236 16.4163ZM22.6491 14.4098C22.7086 13.7869 22.2519 13.2337 21.629 13.1742C21.0061 13.1146 20.4528 13.5713 20.3933 14.1942L22.6491 14.4098ZM19.2074 19.8612L18.3814 19.0855L19.2074 19.8612ZM24.7797 20.9253C25.3674 21.1402 26.018 20.838 26.233 20.2503C26.4479 19.6626 26.1457 19.012 25.558 18.797L24.7797 20.9253ZM16.2402 16.0771H15.1072H16.2402ZM22.0455 7.11617C22.128 6.49588 21.692 5.92615 21.0717 5.84365C20.4514 5.76115 19.8817 6.19712 19.7992 6.81741L22.0455 7.11617ZM25.6923 9.56403C26.2472 9.27497 26.4628 8.59073 26.1737 8.03574C25.8847 7.48075 25.2004 7.26518 24.6455 7.55425L25.6923 9.56403ZM17.3733 31.3219V23.0208H15.1072V31.3219H17.3733ZM23.0004 17.4771L26.4303 13.8247L24.7785 12.2734L21.3486 15.9259L23.0004 17.4771ZM22.7717 17.6644C23.4137 17.2662 24.2738 17.2352 25.5261 17.2352C26.0952 17.2352 26.7554 17.2372 27.3814 17.1492C28.0182 17.0597 28.7094 16.867 29.3236 16.4163L27.9828 14.5894C27.7804 14.738 27.495 14.8449 27.0659 14.9052C26.626 14.9671 26.131 14.9691 25.5261 14.9691C24.4307 14.9691 22.868 14.9381 21.5773 15.7386L22.7717 17.6644ZM22.813 15.7655C22.381 15.4708 22.5932 15.6114 22.6333 15.7075C22.6411 15.7262 22.6125 15.6683 22.6025 15.4444C22.5926 15.2242 22.6025 14.8974 22.6491 14.4098L20.3933 14.1942C20.2963 15.2086 20.295 15.9888 20.5424 16.5811C20.834 17.279 21.4709 17.5931 21.536 17.6375L22.813 15.7655ZM17.0662 23.7964L20.0333 20.6368L18.3814 19.0855L15.4143 22.2452L17.0662 23.7964ZM20.0333 20.6368L23.0004 17.4771L21.3486 15.9259L18.3814 19.0855L20.0333 20.6368ZM19.8932 20.763C19.9583 20.7135 20.1984 20.6055 20.72 20.5501C21.2021 20.4989 21.7812 20.5064 22.3752 20.5517C22.9637 20.5966 23.535 20.6761 23.9896 20.756C24.2166 20.7959 24.4092 20.835 24.5557 20.8685C24.7183 20.9055 24.7832 20.9265 24.7797 20.9253L25.558 18.797C25.3159 18.7085 24.8637 18.6089 24.382 18.5242C23.867 18.4337 23.2215 18.3436 22.5476 18.2922C21.8794 18.2413 21.1506 18.2256 20.4808 18.2967C19.8505 18.3637 19.0947 18.5234 18.5216 18.9593L19.8932 20.763ZM17.3733 23.0208V16.0771H15.1072L15.1072 23.0208H17.3733ZM17.3733 16.0771V2.92065H15.1072L15.1072 16.0771H17.3733ZM17.1069 16.8069L21.789 11.2468L20.0556 9.78714L15.3736 15.3473L17.1069 16.8069ZM22.0479 10.387C21.922 9.29669 21.8864 8.31211 22.0455 7.11617L19.7992 6.81741C19.6089 8.24797 19.6561 9.42781 19.7968 10.6468L22.0479 10.387ZM21.2031 11.6146C22.637 11.2478 24.0792 10.4042 25.6923 9.56403L24.6455 7.55425C22.8489 8.48996 21.7456 9.13685 20.6415 9.41926L21.2031 11.6146Z" fill="#FAF3D6"/>
<path d="M17.3733 30.2045V31.3375H15.1072V30.2045H17.3733ZM15.1072 2.92065C15.1072 2.2949 15.6145 1.78763 16.2402 1.78763C16.866 1.78763 17.3733 2.2949 17.3733 2.92065H15.1072ZM6.05013 13.8247C5.62177 13.3685 5.6443 12.6515 6.10046 12.2231C6.55661 11.7947 7.27365 11.8173 7.70201 12.2734L6.05013 13.8247ZM3.15691 16.4163C2.65243 16.046 2.54361 15.3369 2.91384 14.8325C3.28407 14.328 3.99317 14.2192 4.49764 14.5894L3.15691 16.4163ZM9.83139 14.4099C9.77185 13.7869 10.2286 13.2337 10.8515 13.1742C11.4744 13.1146 12.0276 13.5713 12.0872 14.1942L9.83139 14.4099ZM7.70076 20.9253C7.11307 21.1402 6.46243 20.838 6.24751 20.2503C6.03259 19.6626 6.33478 19.012 6.92247 18.797L7.70076 20.9253ZM16.2402 16.0771H17.3733H16.2402ZM10.435 7.11617C10.3525 6.49588 10.7885 5.92615 11.4088 5.84365C12.0291 5.76115 12.5988 6.19712 12.6813 6.81741L10.435 7.11617ZM6.78822 9.56403C6.23323 9.27497 6.01766 8.59073 6.30672 8.03574C6.59579 7.48076 7.28002 7.26518 7.83501 7.55425L6.78822 9.56403ZM15.1072 30.2045L15.1072 23.0208H17.3733V30.2045H15.1072ZM9.48003 17.4771L6.05013 13.8247L7.70201 12.2734L11.1319 15.9259L9.48003 17.4771ZM9.70879 17.6644C9.06674 17.2662 8.20671 17.2352 6.95433 17.2352C6.38524 17.2352 5.72504 17.2372 5.0991 17.1492C4.46232 17.0597 3.77108 16.867 3.15691 16.4163L4.49764 14.5894C4.70011 14.738 4.98544 14.8449 5.41454 14.9052C5.8545 14.9671 6.3495 14.9691 6.95433 14.9691C8.04981 14.9691 9.61247 14.9381 10.9031 15.7386L9.70879 17.6644ZM9.66746 15.7655C10.0995 15.4708 9.88729 15.6114 9.84714 15.7075C9.83935 15.7262 9.86794 15.6683 9.87798 15.4444C9.88786 15.2242 9.878 14.8974 9.83139 14.4099L12.0872 14.1942C12.1841 15.2086 12.1855 15.9888 11.9381 16.5811C11.6465 17.279 11.0095 17.5931 10.9445 17.6375L9.66746 15.7655ZM15.4143 23.7964L12.4472 20.6368L14.099 19.0855L17.0662 22.2452L15.4143 23.7964ZM12.4472 20.6368L9.48003 17.4771L11.1319 15.9259L14.099 19.0855L12.4472 20.6368ZM12.5873 20.763C12.5221 20.7135 12.2821 20.6055 11.7604 20.5501C11.2783 20.4989 10.6993 20.5064 10.1052 20.5517C9.51677 20.5966 8.94551 20.6761 8.49084 20.756C8.2639 20.7959 8.07129 20.835 7.92474 20.8685C7.7622 20.9055 7.69729 20.9265 7.70076 20.9253L6.92247 18.797C7.16456 18.7085 7.6168 18.6089 8.09848 18.5242C8.61347 18.4337 9.25898 18.3436 9.93284 18.2922C10.6011 18.2413 11.3299 18.2256 11.9997 18.2967C12.6299 18.3637 13.3857 18.5234 13.9589 18.9593L12.5873 20.763ZM15.1072 23.0208L15.1072 16.0771H17.3733V23.0208H15.1072ZM15.1072 16.0771L15.1072 2.92065H17.3733V16.0771H15.1072ZM15.3736 16.8069L10.6915 11.2468L12.4248 9.78714L17.1069 15.3473L15.3736 16.8069ZM10.4326 10.387C10.5584 9.29669 10.5941 8.31211 10.435 7.11617L12.6813 6.81741C12.8716 8.24797 12.8244 9.42781 12.6837 10.6469L10.4326 10.387ZM11.2774 11.6146C9.84344 11.2478 8.40126 10.4042 6.78822 9.56403L7.83501 7.55425C9.63153 8.48996 10.7349 9.13685 11.8389 9.41926L11.2774 11.6146Z" fill="#FAF3D6"/>
</g>
<defs>
<filter id="filter0_i_258_1454" x="2.69434" y="1.38474" width="27.0918" height="31.0701" filterUnits="userSpaceOnUse" color-interpolation-filters="sRGB">
<feFlood flood-opacity="0" result="BackgroundImageFix"/>
<feBlend mode="normal" in="SourceGraphic" in2="BackgroundImageFix" result="shape"/>
<feColorMatrix in="SourceAlpha" type="matrix" values="0 0 0 0 0 0 0 0 0 0 0 0 0 0 0 0 0 0 127 0" result="hardAlpha"/>
<feOffset dy="-0.604282"/>
<feGaussianBlur stdDeviation="0.201427"/>
<feComposite in2="hardAlpha" operator="arithmetic" k2="-1" k3="1"/>
<feColorMatrix type="matrix" values="0 0 0 0 0 0 0 0 0 0 0 0 0 0 0 0 0 0 0.3 0"/>
<feBlend mode="normal" in2="shape" result="effect1_innerShadow_258_1454"/>
</filter>
</defs>
</svg>
