<svg width="33" height="33" viewBox="0 0 33 33" fill="none" xmlns="http://www.w3.org/2000/svg">
<g filter="url(#filter0_i_788_54)">
<path d="M15.1053 31.3219V32.4549H17.3713V31.3219H15.1053ZM17.3713 2.92065C17.3713 2.2949 16.864 1.78763 16.2383 1.78763C15.6125 1.78763 15.1053 2.2949 15.1053 2.92065H17.3713ZM26.4284 13.8247C26.8567 13.3685 26.8342 12.6515 26.3781 12.2231C25.9219 11.7947 25.2049 11.8173 24.7765 12.2734L26.4284 13.8247ZM29.3216 16.4163C29.8261 16.046 29.9349 15.3369 29.5647 14.8325C29.1944 14.328 28.4854 14.2192 27.9809 14.5894L29.3216 16.4163ZM22.6471 14.4098C22.7067 13.7869 22.25 13.2337 21.627 13.1742C21.0041 13.1146 20.4509 13.5713 20.3913 14.1942L22.6471 14.4098ZM19.2054 19.8612L18.3795 19.0855L19.2054 19.8612ZM24.7778 20.9253C25.3654 21.1402 26.0161 20.838 26.231 20.2503C26.4459 19.6626 26.1437 19.012 25.556 18.797L24.7778 20.9253ZM16.2383 16.0771H15.1053H16.2383ZM22.0435 7.11617C22.126 6.49588 21.69 5.92615 21.0697 5.84365C20.4495 5.76115 19.8797 6.19712 19.7972 6.81741L22.0435 7.11617ZM25.6903 9.56403C26.2453 9.27497 26.4609 8.59073 26.1718 8.03574C25.8827 7.48075 25.1985 7.26518 24.6435 7.55425L25.6903 9.56403ZM17.3713 31.3219V23.0208H15.1053V31.3219H17.3713ZM22.9985 17.4771L26.4284 13.8247L24.7765 12.2734L21.3466 15.9259L22.9985 17.4771ZM22.7697 17.6644C23.4118 17.2662 24.2718 17.2352 25.5242 17.2352C26.0933 17.2352 26.7535 17.2372 27.3794 17.1492C28.0162 17.0597 28.7074 16.867 29.3216 16.4163L27.9809 14.5894C27.7784 14.738 27.4931 14.8449 27.064 14.9052C26.624 14.9671 26.129 14.9691 25.5242 14.9691C24.4287 14.9691 22.866 14.9381 21.5754 15.7386L22.7697 17.6644ZM22.8111 15.7655C22.379 15.4708 22.5912 15.6114 22.6314 15.7075C22.6392 15.7262 22.6106 15.6683 22.6005 15.4444C22.5907 15.2242 22.6005 14.8974 22.6471 14.4098L20.3913 14.1942C20.2944 15.2086 20.293 15.9888 20.5405 16.5811C20.832 17.279 21.469 17.5931 21.534 17.6375L22.8111 15.7655ZM17.0642 23.7964L20.0314 20.6368L18.3795 19.0855L15.4123 22.2452L17.0642 23.7964ZM20.0314 20.6368L22.9985 17.4771L21.3466 15.9259L18.3795 19.0855L20.0314 20.6368ZM19.8912 20.763C19.9564 20.7135 20.1964 20.6055 20.7181 20.5501C21.2002 20.4989 21.7793 20.5064 22.3733 20.5517C22.9618 20.5966 23.533 20.6761 23.9877 20.756C24.2146 20.7959 24.4072 20.835 24.5538 20.8685C24.7163 20.9055 24.7812 20.9265 24.7778 20.9253L25.556 18.797C25.314 18.7085 24.8617 18.6089 24.38 18.5242C23.865 18.4337 23.2195 18.3436 22.5457 18.2922C21.8774 18.2413 21.1486 18.2256 20.4788 18.2967C19.8486 18.3637 19.0928 18.5234 18.5196 18.9593L19.8912 20.763ZM17.3713 23.0208V16.0771H15.1053L15.1053 23.0208H17.3713ZM17.3713 16.0771V2.92065H15.1053L15.1053 16.0771H17.3713ZM17.105 16.8069L21.787 11.2468L20.0537 9.78714L15.3716 15.3473L17.105 16.8069ZM22.0459 10.387C21.9201 9.29669 21.8844 8.31211 22.0435 7.11617L19.7972 6.81741C19.607 8.24797 19.6541 9.42781 19.7948 10.6468L22.0459 10.387ZM21.2011 11.6146C22.6351 11.2478 24.0773 10.4042 25.6903 9.56403L24.6435 7.55425C22.847 8.48996 21.7436 9.13685 20.6396 9.41926L21.2011 11.6146Z" fill="white"/>
<path d="M17.3713 30.2045V31.3375H15.1053V30.2045H17.3713ZM15.1053 2.92065C15.1053 2.2949 15.6125 1.78763 16.2383 1.78763C16.864 1.78763 17.3713 2.2949 17.3713 2.92065H15.1053ZM6.04818 13.8247C5.61982 13.3685 5.64235 12.6515 6.09851 12.2231C6.55466 11.7947 7.2717 11.8173 7.70006 12.2734L6.04818 13.8247ZM3.15495 16.4163C2.65048 16.046 2.54165 15.3369 2.91189 14.8325C3.28212 14.328 3.99121 14.2192 4.49569 14.5894L3.15495 16.4163ZM9.82944 14.4099C9.7699 13.7869 10.2266 13.2337 10.8495 13.1742C11.4724 13.1146 12.0257 13.5713 12.0852 14.1942L9.82944 14.4099ZM7.69881 20.9253C7.11112 21.1402 6.46048 20.838 6.24556 20.2503C6.03064 19.6626 6.33283 19.012 6.92051 18.797L7.69881 20.9253ZM16.2383 16.0771H17.3713H16.2383ZM10.4331 7.11617C10.3506 6.49588 10.7865 5.92615 11.4068 5.84365C12.0271 5.76115 12.5968 6.19712 12.6793 6.81741L10.4331 7.11617ZM6.78626 9.56403C6.23128 9.27497 6.0157 8.59073 6.30477 8.03574C6.59383 7.48076 7.27807 7.26518 7.83306 7.55425L6.78626 9.56403ZM15.1053 30.2045L15.1053 23.0208H17.3713V30.2045H15.1053ZM9.47808 17.4771L6.04818 13.8247L7.70006 12.2734L11.13 15.9259L9.47808 17.4771ZM9.70684 17.6644C9.06479 17.2662 8.20475 17.2352 6.95238 17.2352C6.38329 17.2352 5.72308 17.2372 5.09715 17.1492C4.46037 17.0597 3.76913 16.867 3.15495 16.4163L4.49569 14.5894C4.69816 14.738 4.98349 14.8449 5.41259 14.9052C5.85255 14.9671 6.34755 14.9691 6.95238 14.9691C8.04785 14.9691 9.61052 14.9381 10.9012 15.7386L9.70684 17.6644ZM9.66551 15.7655C10.0975 15.4708 9.88533 15.6114 9.84519 15.7075C9.8374 15.7262 9.86598 15.6683 9.87603 15.4444C9.8859 15.2242 9.87604 14.8974 9.82944 14.4099L12.0852 14.1942C12.1822 15.2086 12.1835 15.9888 11.9361 16.5811C11.6445 17.279 11.0076 17.5931 10.9425 17.6375L9.66551 15.7655ZM15.4123 23.7964L12.4452 20.6368L14.0971 19.0855L17.0642 22.2452L15.4123 23.7964ZM12.4452 20.6368L9.47807 17.4771L11.13 15.9259L14.0971 19.0855L12.4452 20.6368ZM12.5853 20.763C12.5202 20.7135 12.2801 20.6055 11.7585 20.5501C11.2764 20.4989 10.6973 20.5064 10.1033 20.5517C9.51481 20.5966 8.94356 20.6761 8.48889 20.756C8.26195 20.7959 8.06934 20.835 7.92278 20.8685C7.76024 20.9055 7.69534 20.9265 7.69881 20.9253L6.92051 18.797C7.1626 18.7085 7.61485 18.6089 8.09653 18.5242C8.61151 18.4337 9.25703 18.3436 9.93089 18.2922C10.5992 18.2413 11.328 18.2256 11.9977 18.2967C12.628 18.3637 13.3838 18.5234 13.957 18.9593L12.5853 20.763ZM15.1053 23.0208L15.1053 16.0771H17.3713V23.0208H15.1053ZM15.1053 16.0771L15.1053 2.92065H17.3713V16.0771H15.1053ZM15.3716 16.8069L10.6895 11.2468L12.4229 9.78714L17.105 15.3473L15.3716 16.8069ZM10.4306 10.387C10.5565 9.29669 10.5921 8.31211 10.4331 7.11617L12.6793 6.81741C12.8696 8.24797 12.8224 9.42781 12.6818 10.6469L10.4306 10.387ZM11.2754 11.6146C9.84148 11.2478 8.3993 10.4042 6.78626 9.56403L7.83306 7.55425C9.62958 8.48996 10.7329 9.13685 11.837 9.41926L11.2754 11.6146Z" fill="white"/>
</g>
<defs>
<filter id="filter0_i_788_54" x="2.69141" y="1.38474" width="27.0938" height="31.0701" filterUnits="userSpaceOnUse" color-interpolation-filters="sRGB">
<feFlood flood-opacity="0" result="BackgroundImageFix"/>
<feBlend mode="normal" in="SourceGraphic" in2="BackgroundImageFix" result="shape"/>
<feColorMatrix in="SourceAlpha" type="matrix" values="0 0 0 0 0 0 0 0 0 0 0 0 0 0 0 0 0 0 127 0" result="hardAlpha"/>
<feOffset dy="-0.604282"/>
<feGaussianBlur stdDeviation="0.201427"/>
<feComposite in2="hardAlpha" operator="arithmetic" k2="-1" k3="1"/>
<feColorMatrix type="matrix" values="0 0 0 0 0 0 0 0 0 0 0 0 0 0 0 0 0 0 0.3 0"/>
<feBlend mode="normal" in2="shape" result="effect1_innerShadow_788_54"/>
</filter>
</defs>
</svg>
